<svg width="212" height="135" viewBox="0 0 212 135" fill="none" xmlns="http://www.w3.org/2000/svg">
<path opacity="0.1" d="M189.439 133.68C209.243 133.68 215.277 117.346 209.571 97.3431C206.344 86.0306 198.883 71.2374 186.693 64.5429C153.335 46.2226 157.831 45.343 149.573 25.8431C136.093 -5.9891 84.257 -7.21746 63.0768 15.5927C46.5969 33.3409 39.5445 58.361 17.0917 76.7957C-10.0101 99.0476 -2.61809 134.003 23.4149 134.003L189.439 133.68Z" fill="#367CFF"/>
<path d="M211.616 114.389H2.73412L14.7556 88.512H199.594L211.616 114.389Z" fill="#292A2E"/>
<path d="M211.616 114.389H2.73412L14.7556 88.512H199.594L211.616 114.389Z" fill="white"/>
<path d="M211.616 114.617H2.73526C2.69683 114.617 2.65902 114.608 2.62533 114.589C2.59165 114.571 2.56318 114.544 2.54257 114.511C2.52197 114.479 2.5099 114.442 2.50748 114.404C2.50506 114.365 2.51238 114.327 2.52874 114.292L14.5493 88.415C14.5677 88.3758 14.5968 88.3427 14.6334 88.3195C14.6699 88.2963 14.7123 88.2839 14.7556 88.2839H199.594C199.637 88.2839 199.68 88.2962 199.716 88.3194C199.753 88.3426 199.782 88.3758 199.801 88.415L211.823 114.292C211.839 114.327 211.846 114.365 211.844 114.403C211.842 114.441 211.83 114.478 211.809 114.511C211.789 114.543 211.76 114.57 211.727 114.589C211.693 114.607 211.656 114.617 211.618 114.617H211.616ZM3.09289 114.161H211.257L199.45 88.7398H14.9005L3.09289 114.161Z" fill="#292A2E"/>
<path d="M121.62 79.8481H101.391V95.1409H121.62V79.8481Z" fill="#292A2E"/>
<path opacity="0.64" d="M121.62 79.8484H101.391V88.0181H121.62V79.8484Z" fill="#0C0C0C"/>
<path d="M154.469 19.175H68.5423C67.1908 19.175 66.0951 20.2707 66.0951 21.6222V81.5908C66.0951 82.9423 67.1908 84.038 68.5423 84.038H154.469C155.821 84.038 156.916 82.9423 156.916 81.5908V21.6222C156.916 20.2707 155.821 19.175 154.469 19.175Z" fill="#292A2E"/>
<path d="M153.261 21.9548H69.7504C69.1956 21.9548 68.7458 22.4046 68.7458 22.9594V72.6947C68.7458 73.2495 69.1956 73.6992 69.7504 73.6992H153.261C153.816 73.6992 154.266 73.2495 154.266 72.6947V22.9594C154.266 22.4046 153.816 21.9548 153.261 21.9548Z" fill="white"/>
<path d="M125.829 93.8843H97.1829C96.4497 93.8843 95.8554 94.4786 95.8554 95.2117C95.8554 95.9448 96.4497 96.5391 97.1829 96.5391H125.829C126.562 96.5391 127.156 95.9448 127.156 95.2117C127.156 94.4786 126.562 93.8843 125.829 93.8843Z" fill="#292A2E"/>
<path d="M97.3379 30.22H93.5348C93.5121 30.2208 93.4894 30.2171 93.4682 30.209C93.447 30.2009 93.4277 30.1886 93.4113 30.1728C93.395 30.1571 93.382 30.1382 93.3731 30.1173C93.3642 30.0964 93.3596 30.0739 93.3596 30.0512C93.3596 30.0285 93.3642 30.0061 93.3731 29.9852C93.382 29.9643 93.395 29.9454 93.4113 29.9296C93.4277 29.9139 93.447 29.9016 93.4682 29.8935C93.4894 29.8854 93.5121 29.8816 93.5348 29.8824H97.3379C97.3816 29.884 97.423 29.9025 97.4533 29.934C97.4836 29.9655 97.5006 30.0075 97.5006 30.0512C97.5006 30.0949 97.4836 30.137 97.4533 30.1684C97.423 30.1999 97.3816 30.2184 97.3379 30.22Z" fill="#292A2E"/>
<path d="M90.792 30.22H89.353C89.3303 30.2208 89.3077 30.2171 89.2865 30.209C89.2653 30.2009 89.2459 30.1886 89.2296 30.1728C89.2133 30.1571 89.2003 30.1382 89.1914 30.1173C89.1825 30.0964 89.1779 30.0739 89.1779 30.0512C89.1779 30.0285 89.1825 30.0061 89.1914 29.9852C89.2003 29.9643 89.2133 29.9454 89.2296 29.9296C89.2459 29.9139 89.2653 29.9016 89.2865 29.8935C89.3077 29.8854 89.3303 29.8816 89.353 29.8824H90.792C90.8147 29.8816 90.8373 29.8854 90.8585 29.8935C90.8797 29.9016 90.8991 29.9139 90.9154 29.9296C90.9318 29.9454 90.9448 29.9643 90.9536 29.9852C90.9625 30.0061 90.9671 30.0285 90.9671 30.0512C90.9671 30.0739 90.9625 30.0964 90.9536 30.1173C90.9448 30.1382 90.9318 30.1571 90.9154 30.1728C90.8991 30.1886 90.8797 30.2009 90.8585 30.209C90.8373 30.2171 90.8147 30.2208 90.792 30.22Z" fill="#367CFF"/>
<path d="M90.792 33.2665H89.353C89.3082 33.2665 89.2653 33.2487 89.2336 33.217C89.2019 33.1854 89.1841 33.1424 89.1841 33.0976C89.1841 33.0528 89.2019 33.0099 89.2336 32.9782C89.2653 32.9465 89.3082 32.9287 89.353 32.9287H90.792C90.8368 32.9287 90.8798 32.9465 90.9114 32.9782C90.9431 33.0099 90.9609 33.0528 90.9609 33.0976C90.9609 33.1424 90.9431 33.1854 90.9114 33.217C90.8798 33.2487 90.8368 33.2665 90.792 33.2665Z" fill="#367CFF"/>
<path d="M90.792 36.3129H89.353C89.3082 36.3129 89.2653 36.2951 89.2336 36.2634C89.2019 36.2318 89.1841 36.1888 89.1841 36.144C89.1841 36.0992 89.2019 36.0562 89.2336 36.0246C89.2653 35.9929 89.3082 35.9751 89.353 35.9751H90.792C90.8368 35.9751 90.8798 35.9929 90.9114 36.0246C90.9431 36.0562 90.9609 36.0992 90.9609 36.144C90.9609 36.1888 90.9431 36.2318 90.9114 36.2634C90.8798 36.2951 90.8368 36.3129 90.792 36.3129Z" fill="#367CFF"/>
<path d="M90.792 39.3593H89.353C89.3082 39.3593 89.2653 39.3415 89.2336 39.3098C89.2019 39.2781 89.1841 39.2352 89.1841 39.1904C89.1841 39.1456 89.2019 39.1026 89.2336 39.071C89.2653 39.0393 89.3082 39.0215 89.353 39.0215H90.792C90.8368 39.0215 90.8798 39.0393 90.9114 39.071C90.9431 39.1026 90.9609 39.1456 90.9609 39.1904C90.9609 39.2352 90.9431 39.2781 90.9114 39.3098C90.8798 39.3415 90.8368 39.3593 90.792 39.3593Z" fill="#367CFF"/>
<path d="M90.792 42.4053H89.353C89.3303 42.4062 89.3077 42.4024 89.2865 42.3943C89.2653 42.3862 89.2459 42.3739 89.2296 42.3581C89.2133 42.3424 89.2003 42.3235 89.1914 42.3026C89.1825 42.2817 89.1779 42.2592 89.1779 42.2365C89.1779 42.2138 89.1825 42.1914 89.1914 42.1705C89.2003 42.1496 89.2133 42.1307 89.2296 42.1149C89.2459 42.0992 89.2653 42.0869 89.2865 42.0788C89.3077 42.0707 89.3303 42.0669 89.353 42.0677H90.792C90.8147 42.0669 90.8373 42.0707 90.8585 42.0788C90.8797 42.0869 90.8991 42.0992 90.9154 42.1149C90.9318 42.1307 90.9448 42.1496 90.9536 42.1705C90.9625 42.1914 90.9671 42.2138 90.9671 42.2365C90.9671 42.2592 90.9625 42.2817 90.9536 42.3026C90.9448 42.3235 90.9318 42.3424 90.9154 42.3581C90.8991 42.3739 90.8797 42.3862 90.8585 42.3943C90.8373 42.4024 90.8147 42.4062 90.792 42.4053Z" fill="#367CFF"/>
<path d="M90.792 45.4508H89.353C89.3082 45.4508 89.2653 45.433 89.2336 45.4014C89.2019 45.3697 89.1841 45.3267 89.1841 45.2819C89.1841 45.2371 89.2019 45.1942 89.2336 45.1625C89.2653 45.1308 89.3082 45.113 89.353 45.113H90.792C90.8368 45.113 90.8798 45.1308 90.9114 45.1625C90.9431 45.1942 90.9609 45.2371 90.9609 45.2819C90.9609 45.3267 90.9431 45.3697 90.9114 45.4014C90.8798 45.433 90.8368 45.4508 90.792 45.4508Z" fill="#367CFF"/>
<path d="M90.792 48.4982H89.353C89.3082 48.4982 89.2653 48.4804 89.2336 48.4487C89.2019 48.4171 89.1841 48.3741 89.1841 48.3293C89.1841 48.2845 89.2019 48.2415 89.2336 48.2099C89.2653 48.1782 89.3082 48.1604 89.353 48.1604H90.792C90.8368 48.1604 90.8798 48.1782 90.9114 48.2099C90.9431 48.2415 90.9609 48.2845 90.9609 48.3293C90.9609 48.3741 90.9431 48.4171 90.9114 48.4487C90.8798 48.4804 90.8368 48.4982 90.792 48.4982Z" fill="#367CFF"/>
<path d="M90.792 51.5442H89.353C89.3303 51.5451 89.3077 51.5413 89.2865 51.5332C89.2653 51.5251 89.2459 51.5128 89.2296 51.4971C89.2133 51.4813 89.2003 51.4624 89.1914 51.4415C89.1825 51.4206 89.1779 51.3981 89.1779 51.3754C89.1779 51.3527 89.1825 51.3303 89.1914 51.3094C89.2003 51.2885 89.2133 51.2696 89.2296 51.2538C89.2459 51.2381 89.2653 51.2258 89.2865 51.2177C89.3077 51.2096 89.3303 51.2058 89.353 51.2067H90.792C90.8147 51.2058 90.8373 51.2096 90.8585 51.2177C90.8797 51.2258 90.8991 51.2381 90.9154 51.2538C90.9318 51.2696 90.9448 51.2885 90.9536 51.3094C90.9625 51.3303 90.9671 51.3527 90.9671 51.3754C90.9671 51.3981 90.9625 51.4206 90.9536 51.4415C90.9448 51.4624 90.9318 51.4813 90.9154 51.4971C90.8991 51.5128 90.8797 51.5251 90.8585 51.5332C90.8373 51.5413 90.8147 51.5451 90.792 51.5442Z" fill="#367CFF"/>
<path d="M90.792 54.5912H89.353C89.3082 54.5912 89.2653 54.5734 89.2336 54.5417C89.2019 54.5101 89.1841 54.4671 89.1841 54.4223C89.1841 54.3775 89.2019 54.3346 89.2336 54.3029C89.2653 54.2712 89.3082 54.2534 89.353 54.2534H90.792C90.8368 54.2534 90.8798 54.2712 90.9114 54.3029C90.9431 54.3346 90.9609 54.3775 90.9609 54.4223C90.9609 54.4671 90.9431 54.5101 90.9114 54.5417C90.8798 54.5734 90.8368 54.5912 90.792 54.5912Z" fill="#367CFF"/>
<path d="M90.792 57.6371H89.353C89.3082 57.6371 89.2653 57.6193 89.2336 57.5877C89.2019 57.556 89.1841 57.513 89.1841 57.4682C89.1841 57.4234 89.2019 57.3805 89.2336 57.3488C89.2653 57.3171 89.3082 57.2993 89.353 57.2993H90.792C90.8368 57.2993 90.8798 57.3171 90.9114 57.3488C90.9431 57.3805 90.9609 57.4234 90.9609 57.4682C90.9609 57.513 90.9431 57.556 90.9114 57.5877C90.8798 57.6193 90.8368 57.6371 90.792 57.6371Z" fill="#367CFF"/>
<path d="M90.792 60.6831H89.353C89.3303 60.684 89.3077 60.6802 89.2865 60.6721C89.2653 60.664 89.2459 60.6517 89.2296 60.636C89.2133 60.6202 89.2003 60.6013 89.1914 60.5804C89.1825 60.5595 89.1779 60.5371 89.1779 60.5144C89.1779 60.4917 89.1825 60.4692 89.1914 60.4483C89.2003 60.4274 89.2133 60.4085 89.2296 60.3928C89.2459 60.377 89.2653 60.3647 89.2865 60.3566C89.3077 60.3485 89.3303 60.3447 89.353 60.3456H90.792C90.8147 60.3447 90.8373 60.3485 90.8585 60.3566C90.8797 60.3647 90.8991 60.377 90.9154 60.3928C90.9318 60.4085 90.9448 60.4274 90.9536 60.4483C90.9625 60.4692 90.9671 60.4917 90.9671 60.5144C90.9671 60.5371 90.9625 60.5595 90.9536 60.5804C90.9448 60.6013 90.9318 60.6202 90.9154 60.636C90.8991 60.6517 90.8797 60.664 90.8585 60.6721C90.8373 60.6802 90.8147 60.684 90.792 60.6831Z" fill="#367CFF"/>
<path d="M90.792 63.7297H89.353C89.3082 63.7297 89.2653 63.7119 89.2336 63.6802C89.2019 63.6485 89.1841 63.6055 89.1841 63.5608C89.1841 63.516 89.2019 63.473 89.2336 63.4413C89.2653 63.4096 89.3082 63.3918 89.353 63.3918H90.792C90.8368 63.3918 90.8798 63.4096 90.9114 63.4413C90.9431 63.473 90.9609 63.516 90.9609 63.5608C90.9609 63.6055 90.9431 63.6485 90.9114 63.6802C90.8798 63.7119 90.8368 63.7297 90.792 63.7297Z" fill="#367CFF"/>
<path d="M90.792 66.776H89.353C89.3082 66.776 89.2653 66.7582 89.2336 66.7266C89.2019 66.6949 89.1841 66.6519 89.1841 66.6071C89.1841 66.5623 89.2019 66.5194 89.2336 66.4877C89.2653 66.456 89.3082 66.4382 89.353 66.4382H90.792C90.8368 66.4382 90.8798 66.456 90.9114 66.4877C90.9431 66.5194 90.9609 66.5623 90.9609 66.6071C90.9609 66.6519 90.9431 66.6949 90.9114 66.7266C90.8798 66.7582 90.8368 66.776 90.792 66.776Z" fill="#367CFF"/>
<path d="M90.792 69.8221H89.353C89.3303 69.8229 89.3077 69.8192 89.2865 69.811C89.2653 69.8029 89.2459 69.7906 89.2296 69.7749C89.2133 69.7591 89.2003 69.7402 89.1914 69.7193C89.1825 69.6984 89.1779 69.676 89.1779 69.6533C89.1779 69.6306 89.1825 69.6081 89.1914 69.5872C89.2003 69.5663 89.2133 69.5474 89.2296 69.5317C89.2459 69.5159 89.2653 69.5036 89.2865 69.4955C89.3077 69.4874 89.3303 69.4837 89.353 69.4845H90.792C90.8147 69.4837 90.8373 69.4874 90.8585 69.4955C90.8797 69.5036 90.8991 69.5159 90.9154 69.5317C90.9318 69.5474 90.9448 69.5663 90.9536 69.5872C90.9625 69.6081 90.9671 69.6306 90.9671 69.6533C90.9671 69.676 90.9625 69.6984 90.9536 69.7193C90.9448 69.7402 90.9318 69.7591 90.9154 69.7749C90.8991 69.7906 90.8797 69.8029 90.8585 69.811C90.8373 69.8192 90.8147 69.8229 90.792 69.8221Z" fill="#367CFF"/>
<path d="M100.377 33.2664H96.9126C96.8899 33.2672 96.8673 33.2635 96.8461 33.2554C96.8249 33.2473 96.8055 33.235 96.7892 33.2192C96.7728 33.2035 96.7598 33.1846 96.7509 33.1637C96.7421 33.1428 96.7375 33.1203 96.7375 33.0976C96.7375 33.0749 96.7421 33.0524 96.7509 33.0315C96.7598 33.0107 96.7728 32.9918 96.7892 32.976C96.8055 32.9603 96.8249 32.948 96.8461 32.9398C96.8673 32.9317 96.8899 32.928 96.9126 32.9288H100.377C100.4 32.928 100.423 32.9317 100.444 32.9398C100.465 32.948 100.484 32.9603 100.501 32.976C100.517 32.9918 100.53 33.0107 100.539 33.0315C100.548 33.0524 100.552 33.0749 100.552 33.0976C100.552 33.1203 100.548 33.1428 100.539 33.1637C100.53 33.1846 100.517 33.2035 100.501 33.2192C100.484 33.235 100.465 33.2473 100.444 33.2554C100.423 33.2635 100.4 33.2672 100.377 33.2664Z" fill="#292A2E"/>
<path d="M97.3379 51.5442H93.5348C93.5121 51.5451 93.4894 51.5413 93.4682 51.5332C93.447 51.5251 93.4277 51.5128 93.4113 51.4971C93.395 51.4813 93.382 51.4624 93.3731 51.4415C93.3642 51.4206 93.3596 51.3981 93.3596 51.3754C93.3596 51.3527 93.3642 51.3303 93.3731 51.3094C93.382 51.2885 93.395 51.2696 93.4113 51.2538C93.4277 51.2381 93.447 51.2258 93.4682 51.2177C93.4894 51.2096 93.5121 51.2058 93.5348 51.2067H97.3379C97.3816 51.2083 97.423 51.2268 97.4533 51.2582C97.4836 51.2897 97.5006 51.3317 97.5006 51.3754C97.5006 51.4192 97.4836 51.4612 97.4533 51.4927C97.423 51.5241 97.3816 51.5426 97.3379 51.5442Z" fill="#292A2E"/>
<path d="M100.377 54.5912H96.9126C96.8678 54.5912 96.8248 54.5734 96.7931 54.5417C96.7615 54.5101 96.7437 54.4671 96.7437 54.4223C96.7437 54.3775 96.7615 54.3346 96.7931 54.3029C96.8248 54.2712 96.8678 54.2534 96.9126 54.2534H100.377C100.422 54.2534 100.465 54.2712 100.497 54.3029C100.528 54.3346 100.546 54.3775 100.546 54.4223C100.546 54.4671 100.528 54.5101 100.497 54.5417C100.465 54.5734 100.422 54.5912 100.377 54.5912Z" fill="#292A2E"/>
<path d="M124.524 36.3129H99.2761C99.2313 36.3129 99.1883 36.2951 99.1566 36.2634C99.125 36.2318 99.1072 36.1888 99.1072 36.144C99.1072 36.0992 99.125 36.0562 99.1566 36.0246C99.1883 35.9929 99.2313 35.9751 99.2761 35.9751H124.524C124.569 35.9751 124.612 35.9929 124.644 36.0246C124.675 36.0562 124.693 36.0992 124.693 36.144C124.693 36.1888 124.675 36.2318 124.644 36.2634C124.612 36.2951 124.569 36.3129 124.524 36.3129Z" fill="#292A2E"/>
<path d="M142.791 36.3129H128.18C128.135 36.3129 128.092 36.2951 128.061 36.2634C128.029 36.2318 128.011 36.1888 128.011 36.144C128.011 36.0992 128.029 36.0562 128.061 36.0246C128.092 35.9929 128.135 35.9751 128.18 35.9751H142.791C142.836 35.9751 142.879 35.9929 142.91 36.0246C142.942 36.0562 142.96 36.0992 142.96 36.144C142.96 36.1888 142.942 36.2318 142.91 36.2634C142.879 36.2951 142.836 36.3129 142.791 36.3129Z" fill="#0CBC8B"/>
<path d="M150.632 36.3129H146.154C146.109 36.3129 146.066 36.2951 146.034 36.2634C146.003 36.2318 145.985 36.1888 145.985 36.144C145.985 36.0992 146.003 36.0562 146.034 36.0246C146.066 35.9929 146.109 35.9751 146.154 35.9751H150.632C150.677 35.9751 150.72 35.9929 150.751 36.0246C150.783 36.0562 150.801 36.0992 150.801 36.144C150.801 36.1888 150.783 36.2318 150.751 36.2634C150.72 36.2951 150.677 36.3129 150.632 36.3129H150.632Z" fill="#292A2E"/>
<path d="M134.656 42.4053H99.2761C99.2534 42.4062 99.2307 42.4024 99.2095 42.3943C99.1883 42.3862 99.169 42.3739 99.1526 42.3581C99.1363 42.3424 99.1233 42.3235 99.1144 42.3026C99.1055 42.2817 99.101 42.2592 99.101 42.2365C99.101 42.2138 99.1055 42.1914 99.1144 42.1705C99.1233 42.1496 99.1363 42.1307 99.1526 42.1149C99.169 42.0992 99.1883 42.0869 99.2095 42.0788C99.2307 42.0707 99.2534 42.0669 99.2761 42.0677H134.656C134.679 42.0669 134.701 42.0707 134.722 42.0788C134.744 42.0869 134.763 42.0992 134.779 42.1149C134.796 42.1307 134.809 42.1496 134.818 42.1705C134.826 42.1914 134.831 42.2138 134.831 42.2365C134.831 42.2592 134.826 42.2817 134.818 42.3026C134.809 42.3235 134.796 42.3424 134.779 42.3581C134.763 42.3739 134.744 42.3862 134.722 42.3943C134.701 42.4024 134.679 42.4062 134.656 42.4053Z" fill="#292A2E"/>
<path d="M142.791 42.4053H138.313C138.29 42.4062 138.267 42.4024 138.246 42.3943C138.225 42.3862 138.206 42.3739 138.189 42.3581C138.173 42.3424 138.16 42.3235 138.151 42.3026C138.142 42.2817 138.138 42.2592 138.138 42.2365C138.138 42.2138 138.142 42.1914 138.151 42.1705C138.16 42.1496 138.173 42.1307 138.189 42.1149C138.206 42.0992 138.225 42.0869 138.246 42.0788C138.267 42.0707 138.29 42.0669 138.313 42.0677H142.791C142.814 42.0669 142.837 42.0707 142.858 42.0788C142.879 42.0869 142.898 42.0992 142.915 42.1149C142.931 42.1307 142.944 42.1496 142.953 42.1705C142.962 42.1914 142.966 42.2138 142.966 42.2365C142.966 42.2592 142.962 42.2817 142.953 42.3026C142.944 42.3235 142.931 42.3424 142.915 42.3581C142.898 42.3739 142.879 42.3862 142.858 42.3943C142.837 42.4024 142.814 42.4062 142.791 42.4053H142.791Z" fill="#367CFF"/>
<path d="M103.079 39.3593H99.2761C99.2313 39.3593 99.1883 39.3415 99.1566 39.3098C99.125 39.2781 99.1072 39.2352 99.1072 39.1904C99.1072 39.1456 99.125 39.1026 99.1566 39.071C99.1883 39.0393 99.2313 39.0215 99.2761 39.0215H103.079C103.124 39.0215 103.167 39.0393 103.199 39.071C103.23 39.1026 103.248 39.1456 103.248 39.1904C103.248 39.2352 103.23 39.2781 103.199 39.3098C103.167 39.3415 103.124 39.3593 103.079 39.3593Z" fill="#0CBC8B"/>
<path d="M132.66 39.3593H106.735C106.691 39.3593 106.648 39.3415 106.616 39.3098C106.584 39.2781 106.566 39.2352 106.566 39.1904C106.566 39.1456 106.584 39.1026 106.616 39.071C106.648 39.0393 106.691 39.0215 106.735 39.0215H132.66C132.705 39.0215 132.748 39.0393 132.779 39.071C132.811 39.1026 132.829 39.1456 132.829 39.1904C132.829 39.2352 132.811 39.2781 132.779 39.3098C132.748 39.3415 132.705 39.3593 132.66 39.3593Z" fill="#367CFF"/>
<path d="M150.661 39.3593H136.726C136.681 39.3593 136.638 39.3415 136.607 39.3098C136.575 39.2781 136.557 39.2352 136.557 39.1904C136.557 39.1456 136.575 39.1026 136.607 39.071C136.638 39.0393 136.681 39.0215 136.726 39.0215H150.661C150.706 39.0215 150.749 39.0393 150.78 39.071C150.812 39.1026 150.83 39.1456 150.83 39.1904C150.83 39.2352 150.812 39.2781 150.78 39.3098C150.749 39.3415 150.706 39.3593 150.661 39.3593Z" fill="#292A2E"/>
<path d="M124.524 45.4508H99.2761C99.2313 45.4508 99.1883 45.433 99.1566 45.4014C99.125 45.3697 99.1072 45.3267 99.1072 45.2819C99.1072 45.2371 99.125 45.1942 99.1566 45.1625C99.1883 45.1308 99.2313 45.113 99.2761 45.113H124.524C124.569 45.113 124.612 45.1308 124.644 45.1625C124.675 45.1942 124.693 45.2371 124.693 45.2819C124.693 45.3267 124.675 45.3697 124.644 45.4014C124.612 45.433 124.569 45.4508 124.524 45.4508Z" fill="#292A2E"/>
<path d="M136.036 45.4508H128.18C128.136 45.4508 128.093 45.433 128.061 45.4014C128.029 45.3697 128.012 45.3267 128.012 45.2819C128.012 45.2371 128.029 45.1942 128.061 45.1625C128.093 45.1308 128.136 45.113 128.18 45.113H136.036C136.081 45.113 136.124 45.1308 136.156 45.1625C136.187 45.1942 136.205 45.2371 136.205 45.2819C136.205 45.3267 136.187 45.3697 136.156 45.4014C136.124 45.433 136.081 45.4508 136.036 45.4508Z" fill="#0CBC8B"/>
<path d="M150.632 45.4508H139.399C139.354 45.4508 139.311 45.433 139.279 45.4014C139.248 45.3697 139.23 45.3267 139.23 45.2819C139.23 45.2371 139.248 45.1942 139.279 45.1625C139.311 45.1308 139.354 45.113 139.399 45.113H150.632C150.676 45.113 150.719 45.1308 150.751 45.1625C150.783 45.1942 150.801 45.2371 150.801 45.2819C150.801 45.3267 150.783 45.3697 150.751 45.4014C150.719 45.433 150.676 45.4508 150.632 45.4508Z" fill="#292A2E"/>
<path d="M103.079 48.4982H99.2761C99.2313 48.4982 99.1883 48.4804 99.1566 48.4487C99.125 48.4171 99.1072 48.3741 99.1072 48.3293C99.1072 48.2845 99.125 48.2415 99.1566 48.2099C99.1883 48.1782 99.2313 48.1604 99.2761 48.1604H103.079C103.124 48.1604 103.167 48.1782 103.199 48.2099C103.23 48.2415 103.248 48.2845 103.248 48.3293C103.248 48.3741 103.23 48.4171 103.199 48.4487C103.167 48.4804 103.124 48.4982 103.079 48.4982Z" fill="#367CFF"/>
<path d="M132.66 48.4982H106.735C106.691 48.4982 106.648 48.4804 106.616 48.4487C106.584 48.4171 106.566 48.3741 106.566 48.3293C106.566 48.2845 106.584 48.2415 106.616 48.2099C106.648 48.1782 106.691 48.1604 106.735 48.1604H132.66C132.705 48.1604 132.748 48.1782 132.779 48.2099C132.811 48.2415 132.829 48.2845 132.829 48.3293C132.829 48.3741 132.811 48.4171 132.779 48.4487C132.748 48.4804 132.705 48.4982 132.66 48.4982Z" fill="#0CBC8B"/>
<path d="M123.849 60.6835H98.6007C98.5559 60.6835 98.5129 60.6657 98.4812 60.634C98.4496 60.6024 98.4318 60.5594 98.4318 60.5146C98.4318 60.4698 98.4496 60.4269 98.4812 60.3952C98.5129 60.3635 98.5559 60.3457 98.6007 60.3457H123.849C123.893 60.3457 123.936 60.3635 123.968 60.3952C124 60.4269 124.018 60.4698 124.018 60.5146C124.018 60.5594 124 60.6024 123.968 60.634C123.936 60.6657 123.893 60.6835 123.849 60.6835Z" fill="#292A2E"/>
<path d="M142.115 60.6835H127.505C127.46 60.6835 127.417 60.6657 127.385 60.634C127.353 60.6024 127.336 60.5594 127.336 60.5146C127.336 60.4698 127.353 60.4269 127.385 60.3952C127.417 60.3635 127.46 60.3457 127.505 60.3457H142.115C142.16 60.3457 142.203 60.3635 142.235 60.3952C142.266 60.4269 142.284 60.4698 142.284 60.5146C142.284 60.5594 142.266 60.6024 142.235 60.634C142.203 60.6657 142.16 60.6835 142.115 60.6835Z" fill="#367CFF"/>
<path d="M109.159 57.6371H98.6007C98.5559 57.6371 98.5129 57.6193 98.4812 57.5877C98.4496 57.556 98.4318 57.513 98.4318 57.4682C98.4318 57.4234 98.4496 57.3805 98.4812 57.3488C98.5129 57.3171 98.5559 57.2993 98.6007 57.2993H109.159C109.204 57.2993 109.247 57.3171 109.279 57.3488C109.311 57.3805 109.328 57.4234 109.328 57.4682C109.328 57.513 109.311 57.556 109.279 57.5877C109.247 57.6193 109.204 57.6371 109.159 57.6371Z" fill="#0CBC8B"/>
<path d="M131.984 57.6371H112.814C112.769 57.6371 112.726 57.6193 112.695 57.5877C112.663 57.556 112.645 57.513 112.645 57.4682C112.645 57.4234 112.663 57.3805 112.695 57.3488C112.726 57.3171 112.769 57.2993 112.814 57.2993H131.984C132.028 57.2993 132.071 57.3171 132.103 57.3488C132.135 57.3805 132.152 57.4234 132.152 57.4682C132.152 57.513 132.135 57.556 132.103 57.5877C132.071 57.6193 132.028 57.6371 131.984 57.6371Z" fill="#367CFF"/>
<path d="M149.986 57.6371H136.051C136.006 57.6371 135.963 57.6193 135.931 57.5877C135.9 57.556 135.882 57.513 135.882 57.4682C135.882 57.4234 135.9 57.3805 135.931 57.3488C135.963 57.3171 136.006 57.2993 136.051 57.2993H149.986C150.03 57.2993 150.073 57.3171 150.105 57.3488C150.137 57.3805 150.155 57.4234 150.155 57.4682C150.155 57.513 150.137 57.556 150.105 57.5877C150.073 57.6193 150.03 57.6371 149.986 57.6371Z" fill="#292A2E"/>
<path d="M133.981 66.776H98.6007C98.5559 66.776 98.5129 66.7582 98.4812 66.7266C98.4496 66.6949 98.4318 66.6519 98.4318 66.6071C98.4318 66.5623 98.4496 66.5194 98.4812 66.4877C98.5129 66.456 98.5559 66.4382 98.6007 66.4382H133.981C134.025 66.4382 134.068 66.456 134.1 66.4877C134.132 66.5194 134.149 66.5623 134.149 66.6071C134.149 66.6519 134.132 66.6949 134.1 66.7266C134.068 66.7582 134.025 66.776 133.981 66.776Z" fill="#367CFF"/>
<path d="M144.395 66.776H137.637C137.592 66.776 137.549 66.7582 137.517 66.7266C137.486 66.6949 137.468 66.6519 137.468 66.6071C137.468 66.5623 137.486 66.5194 137.517 66.4877C137.549 66.456 137.592 66.4382 137.637 66.4382H144.395C144.44 66.4382 144.483 66.456 144.514 66.4877C144.546 66.5194 144.564 66.5623 144.564 66.6071C144.564 66.6519 144.546 66.6949 144.514 66.7266C144.483 66.7582 144.44 66.776 144.395 66.776Z" fill="#292A2E"/>
<path d="M102.404 63.7295H98.6007C98.578 63.7304 98.5554 63.7266 98.5342 63.7185C98.513 63.7104 98.4936 63.6981 98.4773 63.6824C98.4609 63.6666 98.4479 63.6477 98.439 63.6268C98.4301 63.6059 98.4256 63.5835 98.4256 63.5607C98.4256 63.538 98.4301 63.5156 98.439 63.4947C98.4479 63.4738 98.4609 63.4549 98.4773 63.4391C98.4936 63.4234 98.513 63.4111 98.5342 63.403C98.5554 63.3949 98.578 63.3911 98.6007 63.392H102.404C102.426 63.3911 102.449 63.3949 102.47 63.403C102.491 63.4111 102.511 63.4234 102.527 63.4391C102.543 63.4549 102.556 63.4738 102.565 63.4947C102.574 63.5156 102.579 63.538 102.579 63.5607C102.579 63.5835 102.574 63.6059 102.565 63.6268C102.556 63.6477 102.543 63.6666 102.527 63.6824C102.511 63.6981 102.491 63.7104 102.47 63.7185C102.449 63.7266 102.426 63.7304 102.404 63.7295Z" fill="#367CFF"/>
<path d="M131.984 63.7295H106.059C106.037 63.7304 106.014 63.7266 105.993 63.7185C105.972 63.7104 105.952 63.6981 105.936 63.6824C105.92 63.6666 105.907 63.6477 105.898 63.6268C105.889 63.6059 105.884 63.5835 105.884 63.5607C105.884 63.538 105.889 63.5156 105.898 63.4947C105.907 63.4738 105.92 63.4549 105.936 63.4391C105.952 63.4234 105.972 63.4111 105.993 63.403C106.014 63.3949 106.037 63.3911 106.059 63.392H131.984C132.006 63.3911 132.029 63.3949 132.05 63.403C132.071 63.4111 132.091 63.4234 132.107 63.4391C132.123 63.4549 132.136 63.4738 132.145 63.4947C132.154 63.5156 132.159 63.538 132.159 63.5607C132.159 63.5835 132.154 63.6059 132.145 63.6268C132.136 63.6477 132.123 63.6666 132.107 63.6824C132.091 63.6981 132.071 63.7104 132.05 63.7185C132.029 63.7266 132.006 63.7304 131.984 63.7295Z" fill="#292A2E"/>
<path d="M149.986 63.7295H136.051C136.028 63.7304 136.006 63.7266 135.984 63.7185C135.963 63.7104 135.944 63.6981 135.927 63.6824C135.911 63.6666 135.898 63.6477 135.889 63.6268C135.88 63.6059 135.876 63.5835 135.876 63.5607C135.876 63.538 135.88 63.5156 135.889 63.4947C135.898 63.4738 135.911 63.4549 135.927 63.4391C135.944 63.4234 135.963 63.4111 135.984 63.403C136.006 63.3949 136.028 63.3911 136.051 63.392H149.986C150.008 63.3911 150.031 63.3949 150.052 63.403C150.073 63.4111 150.093 63.4234 150.109 63.4391C150.125 63.4549 150.138 63.4738 150.147 63.4947C150.156 63.5156 150.161 63.538 150.161 63.5607C150.161 63.5835 150.156 63.6059 150.147 63.6268C150.138 63.6477 150.125 63.6666 150.109 63.6824C150.093 63.6981 150.073 63.7104 150.052 63.7185C150.031 63.7266 150.008 63.7304 149.986 63.7295Z" fill="#0CBC8B"/>
<path d="M123.849 69.8224H98.6007C98.5559 69.8224 98.5129 69.8046 98.4812 69.773C98.4496 69.7413 98.4318 69.6983 98.4318 69.6535C98.4318 69.6087 98.4496 69.5658 98.4812 69.5341C98.5129 69.5024 98.5559 69.4846 98.6007 69.4846H123.849C123.893 69.4846 123.936 69.5024 123.968 69.5341C124 69.5658 124.018 69.6087 124.018 69.6535C124.018 69.6983 124 69.7413 123.968 69.773C123.936 69.8046 123.893 69.8224 123.849 69.8224Z" fill="#0CBC8B"/>
<path d="M135.361 69.8224H127.505C127.46 69.8224 127.417 69.8046 127.386 69.773C127.354 69.7413 127.336 69.6983 127.336 69.6535C127.336 69.6087 127.354 69.5658 127.386 69.5341C127.417 69.5024 127.46 69.4846 127.505 69.4846H135.361C135.406 69.4846 135.449 69.5024 135.48 69.5341C135.512 69.5658 135.53 69.6087 135.53 69.6535C135.53 69.6983 135.512 69.7413 135.48 69.773C135.449 69.8046 135.406 69.8224 135.361 69.8224Z" fill="#292A2E"/>
<path d="M149.956 69.8224H138.723C138.678 69.8224 138.635 69.8046 138.604 69.773C138.572 69.7413 138.554 69.6983 138.554 69.6535C138.554 69.6087 138.572 69.5658 138.604 69.5341C138.635 69.5024 138.678 69.4846 138.723 69.4846H149.956C150.001 69.4846 150.044 69.5024 150.075 69.5341C150.107 69.5658 150.125 69.6087 150.125 69.6535C150.125 69.6983 150.107 69.7413 150.075 69.773C150.044 69.8046 150.001 69.8224 149.956 69.8224H149.956Z" fill="#367CFF"/>
<path d="M87.0654 71.4865C87.0433 71.4865 87.0213 71.4821 87.0008 71.4737C86.9803 71.4652 86.9617 71.4528 86.946 71.4371C86.9303 71.4215 86.9179 71.4029 86.9094 71.3824C86.9009 71.3619 86.8965 71.3399 86.8965 71.3178V24.9028C86.8965 24.858 86.9143 24.815 86.946 24.7834C86.9777 24.7517 87.0206 24.7339 87.0654 24.7339C87.1102 24.7339 87.1532 24.7517 87.1849 24.7834C87.2165 24.815 87.2343 24.858 87.2343 24.9028V71.3178C87.2343 71.3399 87.23 71.3619 87.2215 71.3824C87.213 71.4029 87.2005 71.4215 87.1848 71.4371C87.1692 71.4528 87.1505 71.4652 87.13 71.4737C87.1096 71.4821 87.0876 71.4865 87.0654 71.4865Z" fill="#292A2E"/>
<path d="M79.342 27.0119H72.0284C71.9836 27.0119 71.9406 26.9941 71.9089 26.9624C71.8773 26.9307 71.8595 26.8878 71.8595 26.843C71.8595 26.7982 71.8773 26.7552 71.9089 26.7235C71.9406 26.6919 71.9836 26.6741 72.0284 26.6741H79.3411C79.3859 26.6741 79.4288 26.6919 79.4605 26.7235C79.4922 26.7552 79.51 26.7982 79.51 26.843C79.51 26.8878 79.4922 26.9307 79.4605 26.9624C79.4288 26.9941 79.3859 27.0119 79.3411 27.0119H79.342Z" fill="#292A2E"/>
<path d="M77.1392 30.3426H72.0284C72.0057 30.3434 71.9831 30.3397 71.9619 30.3316C71.9406 30.3234 71.9213 30.3111 71.9049 30.2954C71.8886 30.2796 71.8756 30.2607 71.8667 30.2399C71.8578 30.219 71.8533 30.1965 71.8533 30.1738C71.8533 30.1511 71.8578 30.1286 71.8667 30.1077C71.8756 30.0868 71.8886 30.0679 71.9049 30.0522C71.9213 30.0364 71.9406 30.0241 71.9619 30.016C71.9831 30.0079 72.0057 30.0042 72.0284 30.005H77.1383C77.182 30.0066 77.2233 30.0251 77.2537 30.0566C77.284 30.088 77.301 30.1301 77.301 30.1738C77.301 30.2175 77.284 30.2595 77.2537 30.291C77.2233 30.3225 77.182 30.341 77.1383 30.3426H77.1392Z" fill="#292A2E"/>
<path d="M81.6325 33.6733H72.0284C71.9836 33.6733 71.9406 33.6555 71.9089 33.6238C71.8773 33.5921 71.8595 33.5491 71.8595 33.5044C71.8595 33.4596 71.8773 33.4166 71.9089 33.3849C71.9406 33.3532 71.9836 33.3354 72.0284 33.3354H81.6316C81.6764 33.3354 81.7194 33.3532 81.7511 33.3849C81.7827 33.4166 81.8005 33.4596 81.8005 33.5044C81.8005 33.5491 81.7827 33.5921 81.7511 33.6238C81.7194 33.6555 81.6764 33.6733 81.6316 33.6733H81.6325Z" fill="#292A2E"/>
<path d="M83.4239 37.004H75.4066C75.384 37.0048 75.3613 37.001 75.3401 36.9929C75.3189 36.9848 75.2996 36.9725 75.2832 36.9568C75.2669 36.941 75.2539 36.9221 75.245 36.9012C75.2361 36.8803 75.2315 36.8579 75.2315 36.8352C75.2315 36.8125 75.2361 36.79 75.245 36.7691C75.2539 36.7482 75.2669 36.7293 75.2832 36.7136C75.2996 36.6978 75.3189 36.6855 75.3401 36.6774C75.3613 36.6693 75.384 36.6655 75.4066 36.6664H83.4239C83.4466 36.6655 83.4692 36.6693 83.4904 36.6774C83.5116 36.6855 83.531 36.6978 83.5473 36.7136C83.5637 36.7293 83.5767 36.7482 83.5855 36.7691C83.5944 36.79 83.599 36.8125 83.599 36.8352C83.599 36.8579 83.5944 36.8803 83.5855 36.9012C83.5767 36.9221 83.5637 36.941 83.5473 36.9568C83.531 36.9725 83.5116 36.9848 83.4904 36.9929C83.4692 37.001 83.4466 37.0048 83.4239 37.004Z" fill="#292A2E"/>
<path d="M79.5474 40.3349H75.4066C75.3618 40.3349 75.3189 40.3171 75.2872 40.2854C75.2555 40.2537 75.2377 40.2108 75.2377 40.166C75.2377 40.1212 75.2555 40.0782 75.2872 40.0465C75.3189 40.0149 75.3618 39.9971 75.4066 39.9971H79.5474C79.5922 39.9971 79.6351 40.0149 79.6668 40.0465C79.6985 40.0782 79.7163 40.1212 79.7163 40.166C79.7163 40.2108 79.6985 40.2537 79.6668 40.2854C79.6351 40.3171 79.5922 40.3349 79.5474 40.3349Z" fill="#292A2E"/>
<path d="M82.7187 43.6657H75.4066C75.3618 43.6657 75.3189 43.6479 75.2872 43.6162C75.2555 43.5845 75.2377 43.5416 75.2377 43.4968C75.2377 43.452 75.2555 43.409 75.2872 43.3774C75.3189 43.3457 75.3618 43.3279 75.4066 43.3279H82.7187C82.7635 43.3279 82.8064 43.3457 82.8381 43.3774C82.8698 43.409 82.8876 43.452 82.8876 43.4968C82.8876 43.5416 82.8698 43.5845 82.8381 43.6162C82.8064 43.6479 82.7635 43.6657 82.7187 43.6657Z" fill="#292A2E"/>
<path d="M77.6678 46.9962H72.0284C71.9836 46.9962 71.9406 46.9785 71.9089 46.9468C71.8773 46.9151 71.8595 46.8721 71.8595 46.8273C71.8595 46.7826 71.8773 46.7396 71.9089 46.7079C71.9406 46.6762 71.9836 46.6584 72.0284 46.6584H77.6669C77.7117 46.6584 77.7546 46.6762 77.7863 46.7079C77.818 46.7396 77.8358 46.7826 77.8358 46.8273C77.8358 46.8721 77.818 46.9151 77.7863 46.9468C77.7546 46.9785 77.7117 46.9962 77.6669 46.9962H77.6678Z" fill="#292A2E"/>
<path d="M75.7294 50.3273H72.0284C71.9836 50.3273 71.9406 50.3095 71.9089 50.2778C71.8773 50.2462 71.8595 50.2032 71.8595 50.1584C71.8595 50.1136 71.8773 50.0706 71.9089 50.039C71.9406 50.0073 71.9836 49.9895 72.0284 49.9895H75.7285C75.7733 49.9895 75.8162 50.0073 75.8479 50.039C75.8796 50.0706 75.8974 50.1136 75.8974 50.1584C75.8974 50.2032 75.8796 50.2462 75.8479 50.2778C75.8162 50.3095 75.7733 50.3273 75.7285 50.3273H75.7294Z" fill="#292A2E"/>
<path d="M90.5622 26.2973V26.3582L92.6732 27.1416C92.7033 27.1539 92.7291 27.175 92.7471 27.2021C92.7652 27.2292 92.7747 27.2611 92.7744 27.2937V27.3511C92.7748 27.3765 92.7688 27.4017 92.7568 27.4241C92.7448 27.4466 92.7273 27.4656 92.706 27.4794C92.6846 27.4945 92.6598 27.5039 92.6338 27.5069C92.6079 27.5098 92.5816 27.5062 92.5574 27.4963L90.1731 26.564C90.1434 26.5522 90.1178 26.5317 90.0997 26.5052C90.0816 26.4787 90.0719 26.4475 90.0717 26.4154V26.2433C90.0714 26.2112 90.081 26.1797 90.0992 26.1531C90.1173 26.1266 90.1431 26.1062 90.1731 26.0947L92.5574 25.1602C92.5769 25.1535 92.5974 25.15 92.618 25.1499C92.6493 25.1506 92.6798 25.16 92.706 25.177C92.7275 25.1915 92.745 25.2112 92.7569 25.2342C92.7689 25.2572 92.7749 25.2829 92.7744 25.3088V25.366C92.7751 25.3982 92.7657 25.4299 92.7476 25.4565C92.7294 25.4831 92.7034 25.5035 92.6732 25.5146L90.5622 26.2973Z" fill="#367CFF"/>
<path d="M94.7467 24.4703L93.4837 28.3372C93.4735 28.3696 93.4533 28.3978 93.4259 28.4178C93.3986 28.4379 93.3656 28.4487 93.3317 28.4487C93.3071 28.4491 93.2829 28.4434 93.2611 28.4322C93.2392 28.421 93.2205 28.4046 93.2065 28.3844C93.1915 28.3644 93.1812 28.3413 93.1765 28.3167C93.1719 28.2921 93.1729 28.2668 93.1796 28.2427L94.4426 24.3791C94.4536 24.3464 94.4744 24.3178 94.5023 24.2974C94.5301 24.277 94.5636 24.2657 94.5981 24.2651C94.6225 24.2651 94.6466 24.2709 94.6684 24.2821C94.6901 24.2933 94.7088 24.3095 94.723 24.3294C94.738 24.3493 94.7479 24.3724 94.7521 24.397C94.7562 24.4215 94.7544 24.4466 94.7467 24.4703Z" fill="#367CFF"/>
<path d="M97.8483 26.2435V26.4156C97.8488 26.4473 97.8397 26.4785 97.8223 26.505C97.8048 26.5315 97.7798 26.5521 97.7505 26.5642L95.3626 27.4965C95.339 27.5063 95.3132 27.5099 95.2878 27.5069C95.2624 27.504 95.2382 27.4946 95.2174 27.4796C95.1958 27.4658 95.1781 27.4469 95.1657 27.4245C95.1533 27.402 95.1467 27.3769 95.1465 27.3513V27.2938C95.1461 27.2608 95.1559 27.2284 95.1747 27.2011C95.1935 27.1739 95.2203 27.1532 95.2514 27.1418L97.3621 26.3584V26.2975L95.2514 25.5139C95.2203 25.5036 95.1933 25.4836 95.1745 25.4569C95.1556 25.4301 95.1458 25.398 95.1465 25.3653V25.3081C95.1467 25.282 95.1532 25.2563 95.1656 25.2334C95.1779 25.2104 95.1957 25.1908 95.2174 25.1763C95.2436 25.1593 95.274 25.1499 95.3052 25.1492C95.3248 25.149 95.3443 25.1524 95.3626 25.1594L97.7505 26.094C97.7802 26.1058 97.8056 26.1265 97.8231 26.1532C97.8406 26.18 97.8494 26.2115 97.8483 26.2435Z" fill="#367CFF"/>
<path d="M11.1104 134.067C9.73336 134.066 8.37678 133.734 7.15608 133.096C5.93539 132.459 4.88672 131.536 4.09933 130.407C3.31194 129.277 2.80913 127.974 2.6337 126.608C2.45827 125.242 2.61541 123.854 3.09175 122.562C3.57521 121.25 15.9759 89.2393 18.1357 83.676L33.0587 92.3605C31.8452 95.4887 27.4474 107.346 23.9143 116.898L29.784 116.26L31.6303 131.888L12.0351 134.017C11.728 134.05 11.4193 134.067 11.1104 134.067Z" fill="#367CFF"/>
<path d="M59.9221 77.0203C59.8697 77.0135 58.4337 82.4179 47.226 81.5768C39.467 80.9956 37.5751 75.7143 37.3973 75.7143C38.2338 75.5365 39.5924 75.3518 39.9639 75.1535C41.1856 74.4971 42.0755 73.6979 42.5236 71.9829C42.874 70.6417 43.0525 65.4785 43.0525 62.8882L54.9918 65.571C54.8254 68.4932 53.6607 75.2675 57.743 76.4664C58.4223 76.6636 59.154 76.846 59.9221 77.0203Z" fill="#E98862"/>
<path d="M54.5786 71.3147C49.8719 71.6862 43.8256 69.6988 42.677 63.4191L41.6408 57.753C40.4922 51.4734 42.8596 45.7795 48.7723 44.6981C54.6848 43.6168 60.0354 47.8991 61.1838 54.1787L61.6426 56.6874C62.0832 59.0967 62.9765 70.6523 54.5786 71.3147Z" fill="#E98862"/>
<path d="M32.2988 76.5823C28.0692 76.8961 23.7564 77.3541 20.6441 80.2354C16.8959 83.7056 16.2166 87.9723 18.6079 99.7143C20.6653 109.818 19.8491 114.233 21.2256 132.876C21.2661 133.425 21.353 134.561 21.353 134.561L66.5987 134.486C66.5987 134.486 70.8383 109.751 73.179 98.3426C74.959 89.6693 79.6344 79.1402 59.9212 77.0183C59.8702 77.0126 44.0604 75.7097 32.2988 76.5823Z" fill="#367CFF"/>
<path d="M21.3539 134.675C21.3244 134.675 21.2961 134.664 21.2748 134.644C21.2536 134.623 21.2411 134.595 21.2399 134.566L19.8219 97.7595C19.8214 97.7445 19.8237 97.7296 19.8289 97.7156C19.8341 97.7015 19.842 97.6886 19.8522 97.6776C19.8624 97.6666 19.8747 97.6578 19.8883 97.6515C19.9019 97.6453 19.9166 97.6418 19.9316 97.6412C19.9467 97.64 19.9619 97.642 19.9762 97.6469C19.9905 97.6519 20.0036 97.6598 20.0148 97.6701C20.0259 97.6804 20.0347 97.6929 20.0408 97.7068C20.0468 97.7207 20.0499 97.7357 20.0499 97.7508L21.4679 134.557C21.469 134.587 21.4581 134.617 21.4375 134.639C21.4169 134.661 21.3884 134.674 21.3582 134.675L21.3539 134.675Z" fill="#0C0C0C"/>
<path d="M93.956 89.7238L97.1348 82.5932C97.2047 82.4365 97.3064 82.2961 97.4334 82.1809C97.5605 82.0657 97.7102 81.9782 97.8729 81.9241C98.0357 81.8699 98.2079 81.8502 98.3787 81.8662C98.5495 81.8822 98.7151 81.9337 98.8649 82.0172C99.1369 82.18 99.3387 82.4381 99.4312 82.7414C99.5237 83.0447 99.5001 83.3715 99.3652 83.6584L98.6837 85.1874L103.034 81.363C103.51 80.9299 104.372 80.702 104.823 81.2682C105.011 81.4748 105.124 81.739 105.142 82.0176C105.16 82.2963 105.084 82.5729 104.925 82.8025C104.93 82.8058 104.935 82.8098 104.939 82.8143C104.942 82.8182 104.944 82.8223 104.946 82.8266L105.681 82.1581C105.817 82.0343 105.979 81.9425 106.155 81.8892C106.331 81.836 106.517 81.8227 106.699 81.8504C106.881 81.878 107.054 81.9459 107.206 82.049C107.359 82.1522 107.486 82.288 107.579 82.4466C107.721 82.6994 107.772 82.9931 107.723 83.2787C107.674 83.5643 107.528 83.8244 107.31 84.0155L106.998 84.3002C107.002 84.3131 107.003 84.3265 107.003 84.3399C107.258 84.1967 107.557 84.1491 107.844 84.2057C108.132 84.2623 108.39 84.4193 108.573 84.6487C108.765 84.9057 108.853 85.2256 108.82 85.5448C108.787 85.8639 108.634 86.1588 108.393 86.3706L107.617 87.0772C107.635 87.0749 107.654 87.077 107.671 87.0832C107.688 87.0894 107.703 87.0996 107.715 87.113C107.729 87.1295 107.738 87.1497 107.74 87.1711C108.004 87.1068 108.281 87.1307 108.529 87.2392C108.777 87.3477 108.983 87.5347 109.115 87.7715C109.248 88.0231 109.292 88.3124 109.241 88.5924C109.189 88.8723 109.044 89.1267 108.83 89.3142L102.28 95.2773C101.364 96.1115 100.219 96.653 98.993 96.8325C97.7669 97.012 96.5151 96.8211 95.3982 96.2845C94.435 95.8219 93.6902 95.002 93.322 93.999C92.9537 92.9959 92.9912 91.8888 93.4263 90.9129L93.956 89.7238Z" fill="#E98862"/>
<g opacity="0.2">
<path d="M100.636 86.6084C100.657 86.6304 100.685 86.6436 100.715 86.6451C100.744 86.6466 100.774 86.6364 100.796 86.6166L104.929 82.9743C104.951 82.9543 104.965 82.9261 104.967 82.8959C104.969 82.8657 104.959 82.836 104.939 82.8133C104.919 82.7906 104.891 82.7768 104.86 82.7749C104.83 82.773 104.801 82.7832 104.778 82.8032L100.645 86.4454C100.634 86.4553 100.625 86.4673 100.618 86.4807C100.612 86.4942 100.608 86.5088 100.607 86.5237C100.606 86.5387 100.608 86.5537 100.613 86.5678C100.618 86.582 100.625 86.5951 100.635 86.6063L100.636 86.6084Z" fill="#0C0C0C"/>
</g>
<g opacity="0.2">
<path d="M102.193 88.4752C102.213 88.4972 102.241 88.5104 102.271 88.512C102.3 88.5135 102.33 88.5032 102.352 88.4834L106.964 84.4188C106.975 84.4089 106.985 84.3969 106.991 84.3835C106.998 84.37 107.002 84.3554 107.003 84.3404C107.003 84.3255 107.001 84.3105 106.997 84.2964C106.992 84.2822 106.984 84.2691 106.974 84.2579C106.954 84.2361 106.926 84.2228 106.896 84.2209C106.866 84.219 106.836 84.2286 106.813 84.2476L102.201 88.3125C102.19 88.3224 102.181 88.3344 102.174 88.3478C102.168 88.3613 102.164 88.3759 102.163 88.3908C102.162 88.4058 102.164 88.4208 102.169 88.4349C102.174 88.4491 102.181 88.4622 102.191 88.4734L102.193 88.4752Z" fill="#0C0C0C"/>
</g>
<g opacity="0.2">
<path d="M103.866 90.5069C103.886 90.529 103.915 90.5422 103.944 90.5437C103.974 90.5452 104.003 90.535 104.026 90.5152L107.705 87.2727C107.727 87.2527 107.741 87.2245 107.743 87.1943C107.745 87.1642 107.735 87.1345 107.715 87.1118C107.695 87.0891 107.667 87.0753 107.636 87.0735C107.606 87.0716 107.577 87.0818 107.554 87.1018L103.875 90.3442C103.864 90.3541 103.855 90.3661 103.848 90.3796C103.841 90.393 103.838 90.4076 103.837 90.4226C103.836 90.4375 103.838 90.4525 103.843 90.4667C103.847 90.4808 103.855 90.4939 103.865 90.5051L103.866 90.5069Z" fill="#0C0C0C"/>
</g>
<path d="M58.942 64.8787C58.1315 60.8059 57.7597 58.0886 57.8023 55.2221C58.9438 53.2194 58.6439 50.9211 58.3842 49.9278C58.7114 50.1141 59.0537 50.2726 59.4074 50.4014C59.572 50.4586 59.7494 50.4677 59.9189 50.4275C60.0884 50.3874 60.2429 50.2997 60.3642 50.1748C60.4856 50.0498 60.5688 49.8928 60.604 49.7223C60.6392 49.5517 60.625 49.3746 60.5631 49.2118C59.6796 46.9242 57.4087 42.479 52.7207 40.9894C51.5406 40.5301 48.5266 39.95 44.527 40.4987C41.1243 40.9655 33.4205 44.1935 32.2222 53.6363V53.6416C32.1825 53.9547 30.6934 61.9713 29.0878 66.1458C26.9295 71.7574 23.8991 73.5011 23.9759 79.9754C24.0748 88.3038 39.3845 89.4121 48.6205 88.7893C57.8566 88.1666 63.0105 85.1298 63.0772 79.128C63.15 72.4024 60.5631 73.027 58.942 64.8787Z" fill="#0A0A0A"/>
<path d="M58.9447 61.9908C57.1479 62.3195 55.3397 60.6635 55.0112 58.8667C54.6828 57.0698 55.5015 55.2222 57.8021 55.2222L58.9447 61.9908Z" fill="#E98862"/>
<path d="M78.2718 132.774C76.4644 132.774 74.7036 132.201 73.2421 131.137C71.7805 130.074 70.6934 128.575 70.1367 126.856L58.2609 90.1266L74.527 84.8672L80.7725 104.186L91.5661 87.021L106.039 96.1214L85.5059 128.776C84.7364 129.999 83.6692 131.008 82.4041 131.707C81.139 132.406 79.7173 132.773 78.2718 132.774Z" fill="#367CFF"/>
<path d="M68.6889 122.632C68.6818 122.632 68.6748 122.631 68.6679 122.63C68.6382 122.625 68.6119 122.608 68.5948 122.583C68.5777 122.558 68.5712 122.527 68.5767 122.497L72.6137 100.583C72.6164 100.568 72.622 100.554 72.6301 100.542C72.6383 100.529 72.6488 100.518 72.6611 100.51C72.6735 100.501 72.6874 100.495 72.702 100.492C72.7166 100.489 72.7318 100.489 72.7465 100.492C72.7612 100.494 72.7753 100.5 72.7878 100.508C72.8004 100.516 72.8112 100.527 72.8197 100.539C72.8282 100.551 72.8342 100.565 72.8374 100.58C72.8405 100.595 72.8407 100.61 72.838 100.624L68.8008 122.539C68.7958 122.566 68.7819 122.589 68.7615 122.606C68.741 122.623 68.7154 122.632 68.6889 122.632Z" fill="#0C0C0C"/>
<path d="M82.2254 109.358C82.2002 109.358 82.1756 109.35 82.1557 109.334C82.1357 109.319 82.1214 109.297 82.1151 109.273L80.7702 104.093C80.7627 104.063 80.767 104.032 80.7823 104.006C80.7977 103.98 80.8227 103.961 80.852 103.954C80.8812 103.946 80.9123 103.95 80.9383 103.966C80.9644 103.981 80.9833 104.006 80.9909 104.035L82.3357 109.215C82.3401 109.232 82.3405 109.25 82.337 109.267C82.3335 109.284 82.3261 109.3 82.3154 109.314C82.3047 109.328 82.2911 109.339 82.2754 109.346C82.2598 109.354 82.2426 109.358 82.2252 109.358H82.2254Z" fill="#0C0C0C"/>
<path d="M173.716 108.489H129.153C128.874 108.489 128.598 108.43 128.344 108.316C128.09 108.201 127.863 108.034 127.678 107.826C127.492 107.617 127.354 107.372 127.27 107.106C127.187 106.84 127.161 106.559 127.194 106.282L128.387 96.332C128.444 95.8529 128.675 95.4115 129.036 95.0913C129.397 94.771 129.863 94.5942 130.345 94.5942H173.716C174.239 94.5943 174.741 94.8021 175.111 95.1721C175.481 95.542 175.689 96.0437 175.689 96.5668V106.517C175.689 107.04 175.481 107.542 175.111 107.912C174.741 108.281 174.239 108.489 173.716 108.489Z" fill="#292A2E"/>
<path d="M141.208 108.583L143.113 101.269C143.155 101.109 143.163 100.941 143.137 100.777C143.11 100.613 143.05 100.456 142.96 100.317C142.869 100.178 142.751 100.059 142.612 99.9674C142.473 99.8763 142.317 99.8152 142.153 99.7879C140.797 99.5317 140.632 101.4 140.375 102.295L139.397 96.7739C139.247 95.2845 137.245 95.2357 137.097 96.7196C137.086 96.7179 137.075 96.7197 137.066 96.7248C137.113 94.0124 134.11 94.2223 134.624 96.5995C134.613 96.6067 134.604 96.6159 134.596 96.6264C134.095 95.3114 132.039 95.9266 132.317 97.3214L132.476 98.3243C132.467 98.3142 132.455 98.3061 132.442 98.3004C132.43 98.2948 132.416 98.2917 132.402 98.2914C132.388 98.2911 132.374 98.2935 132.361 98.2986C132.348 98.3036 132.336 98.3112 132.326 98.3209C131.637 97.3446 129.946 98.0608 130.207 99.283L131.555 107.751C132.327 113.228 140.387 115.066 141.208 108.583Z" fill="#E98862"/>
<g opacity="0.2">
<path d="M138.039 102.189C137.743 102.161 137.109 97.0078 136.991 96.8467C136.986 96.8179 136.992 96.7882 137.009 96.7642C137.026 96.7403 137.052 96.724 137.08 96.7189C137.109 96.7139 137.139 96.7205 137.163 96.7373C137.187 96.7541 137.203 96.7798 137.208 96.8086L138.13 102.061C138.133 102.075 138.133 102.09 138.129 102.104C138.126 102.118 138.12 102.132 138.112 102.144C138.103 102.156 138.092 102.166 138.08 102.173C138.067 102.181 138.054 102.186 138.039 102.189Z" fill="#0C0C0C"/>
</g>
<g opacity="0.2">
<path d="M135.733 102.66C135.704 102.664 135.675 102.657 135.652 102.64C135.628 102.623 135.613 102.598 135.608 102.569L134.577 96.7078C134.572 96.679 134.579 96.6493 134.595 96.6254C134.612 96.6014 134.638 96.585 134.667 96.5799C134.969 96.5524 135.705 102.408 135.825 102.531C135.828 102.546 135.828 102.56 135.825 102.575C135.821 102.589 135.815 102.603 135.807 102.615C135.798 102.627 135.787 102.637 135.774 102.645C135.762 102.653 135.748 102.658 135.733 102.66Z" fill="#0C0C0C"/>
</g>
<g opacity="0.2">
<path d="M133.239 103.185C133.211 103.189 133.182 103.182 133.158 103.165C133.135 103.148 133.119 103.122 133.114 103.094L132.292 98.4184C132.288 98.3901 132.295 98.3612 132.312 98.338C132.329 98.3148 132.354 98.2991 132.382 98.2941C132.41 98.2892 132.439 98.2954 132.463 98.3115C132.487 98.3276 132.503 98.3523 132.509 98.3804L133.332 103.056C133.334 103.07 133.334 103.085 133.331 103.1C133.328 103.114 133.322 103.128 133.313 103.14C133.304 103.152 133.293 103.162 133.281 103.17C133.268 103.178 133.254 103.183 133.239 103.185Z" fill="#0C0C0C"/>
</g>
<path d="M73.4644 134.676H20.49L17.1234 108.809C17.0558 108.29 17.0997 107.763 17.2522 107.262C17.4047 106.761 17.6622 106.299 18.0076 105.906C18.353 105.512 18.7783 105.197 19.2551 104.981C19.7319 104.766 20.2493 104.654 20.7727 104.654H66.3215C67.2155 104.654 68.0791 104.979 68.751 105.568C69.4229 106.158 69.8573 106.972 69.9731 107.859L73.4644 134.676Z" fill="white"/>
<path d="M70.2489 107.825C70.123 106.871 69.6555 105.996 68.9332 105.361C68.211 104.727 67.283 104.376 66.3215 104.374H20.7727C20.2723 104.374 19.7766 104.469 19.3116 104.654C19.1149 104.731 18.925 104.825 18.744 104.934C18.0804 105.33 17.547 105.911 17.2097 106.606C16.8723 107.301 16.7456 108.08 16.8453 108.846L20.2097 134.676H20.7727L17.4015 108.775C17.3389 108.296 17.3794 107.808 17.5202 107.345C17.661 106.883 17.8988 106.455 18.2179 106.092C18.5369 105.728 18.9299 105.437 19.3704 105.237C19.8109 105.038 20.289 104.934 20.7727 104.934H66.3215C67.1468 104.936 67.9433 105.238 68.5636 105.782C69.1838 106.326 69.5858 107.077 69.695 107.895L73.1824 134.676H73.7477L70.2489 107.825Z" fill="#292A2E"/>
<path d="M70.3742 134.676H17.3992L14.0325 108.809C13.9649 108.29 14.0087 107.763 14.1612 107.262C14.3136 106.761 14.5711 106.299 14.9165 105.905C15.2619 105.512 15.6872 105.197 16.1641 104.981C16.641 104.765 17.1584 104.654 17.6818 104.654H63.23C64.1237 104.654 64.9869 104.979 65.6584 105.569C66.3299 106.159 66.7639 106.973 66.8793 107.859L70.3742 134.676Z" fill="#292A2E"/>
<path d="M67.158 107.825C67.0802 107.23 66.8687 106.662 66.5394 106.161C66.2102 105.66 65.7717 105.241 65.257 104.934C65.0758 104.826 64.886 104.732 64.6895 104.654C64.2253 104.469 63.7303 104.374 63.2307 104.374H17.6818C17.1184 104.373 16.5615 104.493 16.0482 104.726C15.5349 104.958 15.0771 105.297 14.7053 105.72C14.3336 106.143 14.0565 106.641 13.8925 107.18C13.7285 107.719 13.6814 108.287 13.7545 108.846L17.1165 134.676H17.6818L14.3106 108.775C14.2481 108.296 14.2886 107.808 14.4294 107.345C14.5702 106.883 14.808 106.455 15.1271 106.092C15.4461 105.728 15.839 105.437 16.2796 105.237C16.7201 105.038 17.1982 104.934 17.6818 104.934H63.23C64.0552 104.936 64.8518 105.238 65.472 105.782C66.0923 106.326 66.4943 107.077 66.6035 107.895L70.0909 134.676H70.6562L67.158 107.825Z" fill="#292A2E"/>
<path d="M160.293 78.1491C160.345 78.1423 160.925 87.766 172.105 86.927C179.845 86.3471 182.605 78.1356 182.782 78.1356C181.948 77.9583 180.542 77.7003 180.172 77.5024C178.953 76.8478 177.217 76.1663 176.824 73.7996C176.598 72.4354 176.982 65.4571 176.864 64.0767L165.211 66.7283C165.377 69.6434 166.539 76.4008 162.467 77.5966C161.79 77.7951 161.06 77.9775 160.293 78.1491Z" fill="#E98862"/>
<path d="M165.539 71.2749C170.231 71.6371 176.254 69.646 177.388 63.3853L178.411 57.736C179.545 51.475 177.176 45.8042 171.281 44.7365C165.386 43.6686 160.061 47.9461 158.927 54.2069L158.474 56.7078C158.333 57.5692 158.251 58.4392 158.229 59.3118C158.153 61.6174 158.047 65.1242 159.187 67.6999C160.265 70.1327 162.542 71.0435 165.539 71.2749Z" fill="#E98862"/>
<path d="M176.061 44.4155C174.198 43.8347 172.266 43.5061 170.317 43.4384C170.128 42.6941 169.707 42.1163 169.088 41.8738C168.057 41.471 166.798 42.1197 165.96 43.3695C165.494 42.6556 164.863 42.0124 164.027 41.7512C161.719 41.0325 161.604 44.3476 161.604 44.3476C161.604 44.3476 157.945 40.7368 157.831 45.3421C157.693 50.914 158.716 52.5481 159.463 52.9607C160.938 53.7753 162.037 53.6377 162.621 54.8362C164.389 58.4656 162.656 68.6889 164.702 69.969C167.836 71.9292 174.255 71.9976 176.34 71.8485C177.142 71.7911 177.893 70.8618 178.23 70.1322C179.321 67.7771 181.753 62.4379 182.43 60.2299C183.679 56.1557 183.585 46.8722 176.061 44.4155Z" fill="#0C0C0C"/>
<path d="M163.301 66.3176C165.111 66.1211 166.368 64.0255 166.171 62.2147C165.975 60.404 164.4 59.5661 162.589 59.7624L161.788 61.0764L161.745 66.4858L163.301 66.3176Z" fill="#E98862"/>
<path d="M193.535 133.166L193.591 133.169C193.591 133.169 193.551 132.089 193.535 133.166Z" fill="#333333"/>
<path d="M144.221 99.4432C144.575 103.595 146.293 129.494 146.633 134.607H193.456C193.72 129.996 194.908 109.831 195.911 100.811C196.868 92.2053 198.747 87.8966 197.37 85.3524C195.12 81.1943 188.971 78.7914 184.779 78.2238C182.219 77.8774 181.691 77.6289 180.648 77.6289H162.62C160.906 77.6289 149.958 79.2805 147.714 80.9306C141.504 85.4975 143.471 90.646 144.221 99.4432Z" fill="#367CFF"/>
<path d="M203.453 134.336C204.83 134.336 206.187 134.003 207.408 133.366C208.629 132.729 209.678 131.806 210.465 130.676C211.253 129.546 211.755 128.243 211.931 126.877C212.106 125.511 211.949 124.123 211.472 122.831C210.989 121.519 199.648 91.4892 197.489 85.9243L181.503 92.4016C182.717 95.5301 187.116 107.389 190.649 116.941L184.779 116.303L182.931 133.3L202.528 134.286C202.835 134.319 203.144 134.336 203.453 134.336Z" fill="#367CFF"/>
<path d="M194.33 100.985L193.179 134.603L193.49 134.614L194.641 100.996L194.33 100.985Z" fill="#0C0C0C"/>
<path d="M137.448 134.336C136.071 134.336 134.714 134.003 133.493 133.366C132.272 132.729 131.223 131.806 130.436 130.676C129.648 129.546 129.146 128.243 128.97 126.877C128.795 125.511 128.952 124.123 129.429 122.831C129.912 121.519 141.728 91.3562 143.887 85.792L159.397 92.4022C158.184 95.5306 153.785 107.389 150.252 116.942L156.122 116.304L157.97 133.3L138.373 134.286C138.066 134.32 137.757 134.336 137.448 134.336Z" fill="#367CFF"/>
<path d="M150.215 114.949C150.189 114.949 150.162 114.943 150.138 114.931C150.114 114.918 150.093 114.901 150.077 114.879C150.062 114.857 150.051 114.832 150.047 114.806C150.042 114.779 150.044 114.752 150.053 114.726L154.203 101.66C154.209 101.638 154.22 101.618 154.234 101.6C154.248 101.582 154.266 101.567 154.286 101.557C154.306 101.546 154.329 101.539 154.351 101.537C154.374 101.535 154.397 101.537 154.419 101.544C154.441 101.551 154.461 101.563 154.478 101.577C154.496 101.592 154.51 101.61 154.52 101.631C154.53 101.651 154.536 101.674 154.538 101.696C154.539 101.719 154.536 101.742 154.528 101.764L150.378 114.828C150.368 114.863 150.346 114.894 150.317 114.916C150.287 114.937 150.252 114.949 150.215 114.949Z" fill="#0C0C0C"/>
<path d="M203.398 108.809L200.029 134.676H147.056L150.549 107.859C150.664 106.973 151.098 106.159 151.77 105.569C152.441 104.979 153.304 104.654 154.198 104.654H199.747C200.27 104.654 200.788 104.765 201.265 104.981C201.742 105.196 202.168 105.511 202.513 105.905C202.859 106.298 203.117 106.761 203.269 107.261C203.422 107.762 203.466 108.29 203.398 108.809Z" fill="white"/>
<path d="M202.723 105.721C202.451 105.411 202.132 105.145 201.778 104.934C201.596 104.825 201.405 104.731 201.208 104.654C200.743 104.469 200.247 104.374 199.747 104.374H154.198C153.237 104.376 152.309 104.727 151.587 105.362C150.864 105.996 150.397 106.871 150.271 107.825L146.774 134.676H147.339L150.826 107.895C150.935 107.077 151.336 106.326 151.956 105.782C152.576 105.237 153.373 104.936 154.198 104.934H199.747C200.23 104.935 200.708 105.038 201.149 105.238C201.59 105.438 201.983 105.729 202.302 106.092C202.621 106.456 202.859 106.883 203 107.346C203.141 107.808 203.182 108.296 203.12 108.775L199.747 134.676H200.312L203.674 108.846C203.747 108.287 203.7 107.719 203.536 107.181C203.372 106.642 203.095 106.144 202.723 105.721Z" fill="#292A2E"/>
<path d="M206.489 108.809L203.12 134.676H150.147L153.639 107.859C153.723 107.217 153.974 106.609 154.368 106.096C154.761 105.583 155.283 105.182 155.88 104.934C156.326 104.748 156.805 104.653 157.289 104.654H202.84C203.363 104.654 203.88 104.766 204.357 104.982C204.834 105.197 205.259 105.513 205.604 105.906C205.95 106.299 206.207 106.761 206.36 107.262C206.512 107.763 206.556 108.29 206.489 108.809Z" fill="#292A2E"/>
<path d="M205.814 105.721C205.442 105.298 204.985 104.959 204.472 104.727C203.959 104.494 203.403 104.374 202.84 104.374H157.289C156.576 104.375 155.876 104.568 155.264 104.934C154.749 105.241 154.311 105.66 153.981 106.161C153.651 106.661 153.44 107.23 153.361 107.825L149.865 134.676H150.43L153.917 107.895C154.026 107.077 154.427 106.326 155.047 105.782C155.667 105.237 156.463 104.936 157.289 104.934H202.84C203.323 104.934 203.801 105.038 204.242 105.237C204.683 105.437 205.075 105.728 205.395 106.092C205.714 106.455 205.951 106.883 206.092 107.345C206.233 107.808 206.273 108.296 206.211 108.775L202.84 134.676H203.403L206.767 108.846C206.839 108.287 206.792 107.719 206.627 107.181C206.463 106.642 206.186 106.144 205.814 105.721Z" fill="#292A2E"/>
<path d="M2.72386 134.835H210.927C210.969 134.835 211.01 134.819 211.039 134.789C211.069 134.759 211.086 134.718 211.086 134.676C211.086 134.634 211.069 134.593 211.039 134.563C211.01 134.533 210.969 134.516 210.927 134.516H2.72386C2.68154 134.516 2.64096 134.533 2.61103 134.563C2.58111 134.593 2.5643 134.634 2.5643 134.676C2.5643 134.718 2.58111 134.759 2.61103 134.789C2.64096 134.819 2.68154 134.835 2.72386 134.835Z" fill="#292A2E"/>
<g opacity="0.65">
<path d="M2.72386 134.835H210.927C210.969 134.835 211.01 134.819 211.039 134.789C211.069 134.759 211.086 134.718 211.086 134.676C211.086 134.634 211.069 134.593 211.039 134.563C211.01 134.533 210.969 134.516 210.927 134.516H2.72386C2.68154 134.516 2.64096 134.533 2.61103 134.563C2.58111 134.593 2.5643 134.634 2.5643 134.676C2.5643 134.718 2.58111 134.759 2.61103 134.789C2.64096 134.819 2.68154 134.835 2.72386 134.835Z" fill="#292A2E"/>
</g>
<path d="M128.901 125.926L129.634 106.654L139.76 106.118L140.681 125.926H128.901Z" fill="#367CFF"/>
</svg>
