<svg width="250" height="127" viewBox="0 0 250 127" fill="none" xmlns="http://www.w3.org/2000/svg">
<g clip-path="url(#clip0_10_1841)">
<g clip-path="url(#clip1_10_1841)">
<path d="M212.015 0H210.594V123.63H212.015V0Z" fill="#282246"/>
<path opacity="0.05" d="M212.015 0H210.594V123.63H212.015V0Z" fill="#292A2E"/>
<path opacity="0.05" d="M180.575 85.1913V52.8455H154.019V71.6378H112.882V104.912H95.3978V123.63H112.882H116.25H204.634V85.1913H180.575Z" fill="#292A2E"/>
<path opacity="0.34" d="M176.766 56.3574H157.427V59.8694H176.766V56.3574Z" fill="#110D24"/>
<path opacity="0.34" d="M176.766 63.6351H157.427V67.1471H176.766V63.6351Z" fill="#110D24"/>
<path opacity="0.34" d="M176.766 70.913H157.427V74.425H176.766V70.913Z" fill="#110D24"/>
<path opacity="0.34" d="M201.204 88.6002H197.64V92.1122H201.204V88.6002Z" fill="#110D24"/>
<path opacity="0.34" d="M201.204 95.8779H197.64V99.3899H201.204V95.8779Z" fill="#110D24"/>
<path opacity="0.34" d="M201.204 103.156H197.64V106.668H201.204V103.156Z" fill="#110D24"/>
<path opacity="0.34" d="M194.61 88.6002H191.045V92.1122H194.61V88.6002Z" fill="#110D24"/>
<path opacity="0.34" d="M194.61 95.8779H191.045V99.3899H194.61V95.8779Z" fill="#110D24"/>
<path opacity="0.34" d="M194.61 103.156H191.045V106.668H194.61V103.156Z" fill="#110D24"/>
<path opacity="0.34" d="M188.194 88.6002H184.63V92.1122H188.194V88.6002Z" fill="#110D24"/>
<path opacity="0.34" d="M188.194 95.8779H184.63V99.3899H188.194V95.8779Z" fill="#110D24"/>
<path opacity="0.34" d="M188.194 103.156H184.63V106.668H188.194V103.156Z" fill="#110D24"/>
<path d="M210.594 61.1215H185.661V0H183.598V61.1215H116.25V0H114.188V61.1215H86.6793V63.1788H114.188V123.63H116.25V63.1788H183.598V123.63H185.661V63.1788H210.594V61.1215Z" fill="#322A55"/>
<path d="M215.531 123.481H81.7429V127.592H215.531V123.481Z" fill="#282246"/>
<path opacity="0.1" d="M215.531 123.481H81.7429V127.592H215.531V123.481Z" fill="#292A2E"/>
<path opacity="0.1" d="M217.462 123.481H215.531V127.592H217.462V123.481Z" fill="#292A2E"/>
<path opacity="0.1" d="M217.462 123.481H215.531V127.592H217.462V123.481Z" fill="#292A2E"/>
<path d="M212.015 2.20691H86.6793V5.26388H212.015V2.20691Z" fill="#322A55"/>
<path d="M212.015 7.91663H86.6793V10.9736H212.015V7.91663Z" fill="#322A55"/>
<path d="M212.015 13.6261H86.6793V16.6831H212.015V13.6261Z" fill="#322A55"/>
<path d="M212.015 19.3358H86.6793V22.3928H212.015V19.3358Z" fill="#322A55"/>
<path d="M212.015 25.0455H86.6793V28.1025H212.015V25.0455Z" fill="#322A55"/>
<path d="M198.702 0H196.824V31.55H198.702V0Z" fill="#322A55"/>
<path d="M197.923 36.0811C199.348 36.0811 200.503 34.9284 200.503 33.5066C200.503 32.0847 199.348 30.932 197.923 30.932C196.497 30.932 195.342 32.0847 195.342 33.5066C195.342 34.9284 196.497 36.0811 197.923 36.0811Z" fill="#322A55"/>
<path d="M77.9791 120.146L77.4119 120.221L82.5425 158.559L83.1097 158.484L77.9791 120.146Z" fill="#494949"/>
<path d="M19.0893 120.145L18.5221 120.221L23.6527 158.559L24.2199 158.483L19.0893 120.145Z" fill="#494949"/>
<path d="M74.8238 120.183H18.9604C18.0471 120.183 17.165 119.851 16.4787 119.25C15.7925 118.648 15.349 117.818 15.2311 116.915L11.5359 88.6031C11.4668 88.0739 11.5117 87.5361 11.6675 87.0255C11.8233 86.515 12.0865 86.0435 12.4395 85.6425C12.7925 85.2415 13.2271 84.9202 13.7144 84.7002C14.2018 84.4801 14.7305 84.3663 15.2655 84.3663H71.1286C72.0419 84.3663 72.924 84.6979 73.6102 85.2992C74.2964 85.9005 74.7399 86.7304 74.8578 87.634L78.553 115.946C78.622 116.475 78.5772 117.013 78.4214 117.523C78.2655 118.034 78.0024 118.505 77.6494 118.906C77.2965 119.307 76.8619 119.628 76.3746 119.849C75.8873 120.069 75.3586 120.182 74.8238 120.183Z" fill="#292A2E"/>
<path opacity="0.8" d="M74.8238 120.183H18.9604C18.0471 120.183 17.165 119.851 16.4787 119.25C15.7925 118.648 15.349 117.818 15.2311 116.915L11.5359 88.6031C11.4668 88.0739 11.5117 87.5361 11.6675 87.0255C11.8233 86.515 12.0865 86.0435 12.4395 85.6425C12.7925 85.2415 13.2271 84.9202 13.7144 84.7002C14.2018 84.4801 14.7305 84.3663 15.2655 84.3663H71.1286C72.0419 84.3663 72.924 84.6979 73.6102 85.2992C74.2964 85.9005 74.7399 86.7304 74.8578 87.634L78.553 115.946C78.622 116.475 78.5772 117.013 78.4214 117.523C78.2655 118.034 78.0024 118.505 77.6494 118.906C77.2965 119.307 76.8619 119.628 76.3746 119.849C75.8873 120.069 75.3586 120.182 74.8238 120.183Z" fill="white"/>
<path d="M74.8238 120.468H18.9604C17.9783 120.466 17.0303 120.108 16.2923 119.462C15.5543 118.815 15.0765 117.924 14.9473 116.952L11.2521 88.6405C11.1778 88.071 11.226 87.4923 11.3937 86.9429C11.5613 86.3936 11.8445 85.8862 12.2243 85.4547C12.6042 85.0232 13.0719 84.6775 13.5962 84.4407C14.1206 84.2039 14.6896 84.0814 15.2652 84.0814H71.1286C72.1108 84.0836 73.0589 84.4413 73.797 85.0879C74.535 85.7346 75.0129 86.6265 75.1419 87.598L78.8371 115.909C78.9114 116.479 78.863 117.058 78.6953 117.607C78.5276 118.156 78.2444 118.664 77.8646 119.095C77.4847 119.527 77.017 119.872 76.4927 120.109C75.9683 120.346 75.3993 120.468 74.8238 120.469V120.468ZM15.2652 84.6518C14.771 84.6518 14.2825 84.757 13.8323 84.9603C13.3821 85.1637 12.9805 85.4605 12.6544 85.831C12.3283 86.2014 12.0852 86.6371 11.9413 87.1088C11.7973 87.5804 11.7559 88.0773 11.8198 88.5663L15.5147 116.878C15.6255 117.712 16.0358 118.478 16.6695 119.033C17.3031 119.588 18.1171 119.895 18.9604 119.897H74.8238C75.318 119.897 75.8066 119.792 76.2569 119.588C76.7072 119.385 77.1088 119.088 77.435 118.718C77.7611 118.347 78.0042 117.911 78.1481 117.439C78.292 116.968 78.3334 116.471 78.2695 115.982L74.5743 87.6702C74.4634 86.8362 74.053 86.0707 73.4194 85.5156C72.7857 84.9605 71.9718 84.6536 71.1286 84.6518H15.2652Z" fill="#292A2E"/>
<path d="M77.9828 120.183H22.1194C21.2061 120.183 20.3239 119.851 19.6376 119.25C18.9514 118.648 18.5078 117.818 18.3899 116.915L14.6947 88.6031C14.6257 88.0739 14.6706 87.5361 14.8264 87.0256C14.9823 86.5151 15.2455 86.0436 15.5984 85.6427C15.9514 85.2417 16.386 84.9204 16.8733 84.7003C17.3606 84.4802 17.8893 84.3664 18.4242 84.3663H74.2876C75.2009 84.3663 76.083 84.6979 76.7693 85.2992C77.4556 85.9005 77.8991 86.7304 78.0171 87.634L81.7123 115.946C81.7813 116.475 81.7364 117.013 81.5805 117.523C81.4247 118.034 81.1615 118.505 80.8085 118.906C80.4556 119.307 80.0209 119.628 79.5337 119.849C79.0464 120.069 78.5177 120.182 77.9828 120.183Z" fill="white"/>
<path d="M77.9828 120.468H22.1194C21.1373 120.466 20.1893 120.108 19.4513 119.462C18.7133 118.815 18.2354 117.924 18.1063 116.952L14.4111 88.6405C14.3368 88.071 14.385 87.4923 14.5527 86.9429C14.7204 86.3936 15.0035 85.8862 15.3834 85.4547C15.7632 85.0232 16.2309 84.6775 16.7553 84.4407C17.2796 84.2039 17.8486 84.0814 18.4242 84.0814H74.2876C75.2698 84.0836 76.2179 84.4412 76.9559 85.0879C77.6939 85.7346 78.1717 86.6265 78.3006 87.598L81.9958 115.909C82.0702 116.479 82.0219 117.058 81.8543 117.607C81.6866 118.156 81.4034 118.664 81.0236 119.095C80.6438 119.527 80.1761 119.872 79.6517 120.109C79.1273 120.346 78.5584 120.469 77.9828 120.469V120.468ZM18.4242 84.6518C17.93 84.6518 17.4415 84.757 16.9913 84.9603C16.541 85.1636 16.1395 85.4605 15.8134 85.831C15.4872 86.2014 15.2441 86.6371 15.1001 87.1087C14.9562 87.5804 14.9147 88.0773 14.9785 88.5663L18.6737 116.878C18.7844 117.712 19.1947 118.478 19.8284 119.033C20.4621 119.588 21.2761 119.895 22.1194 119.897H77.9828C78.4771 119.897 78.9657 119.792 79.416 119.589C79.8664 119.385 80.268 119.088 80.5942 118.718C80.9203 118.347 81.1635 117.911 81.3074 117.44C81.4513 116.968 81.4927 116.471 81.4288 115.982L77.7336 87.6702C77.6228 86.8361 77.2125 86.0704 76.5789 85.5151C75.9452 84.9599 75.1312 84.6528 74.2879 84.6509L18.4242 84.6518Z" fill="#292A2E"/>
<path d="M79.7289 41.2059C79.7289 41.2059 83.441 38.4104 84.3609 31.9756C85.073 26.9932 80.4666 30.2209 80.4666 30.2209C80.4666 30.2209 80.9444 26.6287 78.3207 26.9849C75.697 27.3412 74.2292 31.1155 74.2292 31.1155" fill="#0C0C0C"/>
<path d="M64.7619 27.4054C64.7619 27.4054 51.745 28.7979 56.4505 46.3958L57.6024 46.4726L59.9405 46.629" fill="#0C0C0C"/>
<path d="M77.5487 64.7742C77.4915 64.7668 76.8563 75.2791 64.6145 74.3633C56.1398 73.7302 53.1181 64.7594 52.9238 64.7594C53.8377 64.5655 54.9667 64.2715 55.4156 64.1705C56.3936 63.9439 57.2793 63.4257 57.9549 62.6847C58.6305 61.9437 59.0639 61.015 59.1975 60.0222C59.4456 58.5321 59.0258 50.9081 59.1543 49.4003L72.1632 52.2974C71.9815 55.4817 70.7091 62.8639 75.1674 64.1705C75.9104 64.3865 76.7096 64.5852 77.5487 64.7742Z" fill="#E98862"/>
<path opacity="0.52" d="M72.346 61.1534C72.1422 60.4982 72.011 59.8228 71.9546 59.1392C71.8118 57.579 71.8406 56.0079 72.0404 54.4539C69.3963 54.0979 66.9054 53.009 64.8506 51.311C64.6091 52.2011 63.2807 56.0902 63.6489 56.9363C64.3427 58.5351 67.6093 61.1534 72.346 61.1534Z" fill="#0C0C0C"/>
<path d="M69.661 59.0727C64.5287 58.6134 58.3861 55.3783 58.2977 48.4277L58.2175 42.1564C58.1291 35.2058 61.7162 29.5249 68.2757 29.4418C74.8349 29.3585 79.8096 34.9309 79.898 41.8813L79.9335 44.6576C79.9289 45.6112 79.8592 46.5633 79.7249 47.5074C79.3884 50.0051 78.8666 53.8026 77.1679 56.3717C75.5634 58.7967 72.9397 59.3662 69.661 59.0727Z" fill="#E98862"/>
<path d="M72.0421 52.7196C73.1012 52.7675 74.1568 52.5663 75.1236 52.1324C75.1436 52.1239 75.1617 52.1115 75.1769 52.096C75.1921 52.0805 75.2041 52.0622 75.2122 52.0421C75.2203 52.022 75.2244 52.0005 75.2241 51.9788C75.2239 51.9571 75.2194 51.9357 75.2109 51.9157C75.2023 51.8958 75.19 51.8777 75.1744 51.8625C75.1589 51.8474 75.1405 51.8354 75.1204 51.8273C75.1002 51.8192 75.0786 51.8152 75.0569 51.8154C75.0352 51.8157 75.0137 51.8202 74.9937 51.8287C72.9108 52.715 71.0193 52.5851 69.524 51.4533C69.4938 51.4295 69.4624 51.4073 69.4299 51.3868C69.3923 51.3694 69.3496 51.3667 69.3101 51.3792C69.2706 51.3917 69.2373 51.4185 69.2166 51.4544C69.196 51.4902 69.1895 51.5324 69.1986 51.5727C69.2076 51.6131 69.2314 51.6486 69.2654 51.6722C69.2774 51.6797 69.2966 51.6948 69.3226 51.7156C70.1087 52.313 71.0556 52.6626 72.0421 52.7196Z" fill="#0C0C0C"/>
<path d="M71.9926 54.2853C72.184 54.2972 72.376 54.2926 72.5666 54.2716C72.6102 54.2669 72.6502 54.2452 72.6778 54.2112C72.7054 54.1771 72.7183 54.1335 72.7136 54.09C72.709 54.0465 72.6872 54.0066 72.6531 53.979C72.619 53.9515 72.5753 53.9387 72.5317 53.9433C71.3852 54.0649 70.8381 53.5408 70.815 53.5182C70.7836 53.4887 70.742 53.4725 70.6989 53.473C70.6558 53.4736 70.6146 53.491 70.5841 53.5214C70.5535 53.5518 70.5361 53.5928 70.5355 53.6359C70.5348 53.6789 70.551 53.7204 70.5806 53.7517C70.9755 54.0868 71.4744 54.2753 71.9926 54.2853Z" fill="#0C0C0C"/>
<path d="M77.7318 45.9941C78.1781 45.9941 78.5398 45.6332 78.5398 45.188C78.5398 44.7428 78.1781 44.3818 77.7318 44.3818C77.2856 44.3818 76.9239 44.7428 76.9239 45.188C76.9239 45.6332 77.2856 45.9941 77.7318 45.9941Z" fill="#0C0C0C"/>
<path d="M69.8385 45.5C70.2847 45.5 70.6464 45.139 70.6464 44.6938C70.6464 44.2486 70.2847 43.8877 69.8385 43.8877C69.3922 43.8877 69.0305 44.2486 69.0305 44.6938C69.0305 45.139 69.3922 45.5 69.8385 45.5Z" fill="#0C0C0C"/>
<path d="M58.732 50.5401C56.7386 50.5655 55.0957 48.4582 55.0697 46.4694C55.0437 44.4807 56.6462 43.3637 58.6396 43.3383L59.6836 44.6576L60.4453 50.5184L58.732 50.5401Z" fill="#E98862"/>
<path d="M60.7139 47.3444C60.7139 47.3444 61.3871 37.5095 64.3762 36.9023C66.367 36.4978 71.1946 39.315 75.6661 38.4641C77.6225 38.093 79.4797 38.5751 79.6686 39.4969C79.7432 39.862 80.9621 34.6155 77.8986 30.6351C75.4595 27.4665 67.4774 26.5702 63.846 27.6092C53.791 30.4872 58.2281 43.7713 58.2281 43.7713L58.6765 47.1617L60.7139 47.3444Z" fill="#0C0C0C"/>
<path d="M73.2458 50.3986C73.2501 50.3988 73.2544 50.3988 73.2587 50.3986C73.901 50.392 74.9777 50.3098 74.9734 49.8302C74.9691 49.4328 73.8361 45.1558 73.7065 44.6694C73.6922 44.6315 73.6643 44.6002 73.6282 44.5817C73.5921 44.5632 73.5504 44.5587 73.5111 44.5691C73.4719 44.5795 73.438 44.6041 73.4159 44.6381C73.3938 44.6721 73.3852 44.7131 73.3917 44.753C73.895 46.6473 74.6446 49.5636 74.6478 49.8342C74.5857 49.9484 73.9222 50.0657 73.257 50.0726C73.215 50.0735 73.175 50.0904 73.1452 50.1199C73.1154 50.1493 73.0981 50.1891 73.0969 50.2309C73.0956 50.2728 73.1105 50.3135 73.1385 50.3447C73.1665 50.3759 73.2054 50.3952 73.2472 50.3986H73.2458Z" fill="#0C0C0C"/>
<path d="M75.4386 40.8171C76.1137 40.6318 76.8264 40.6318 77.5015 40.8171C77.8331 40.9061 78.1495 41.0442 78.44 41.2271C78.7271 41.406 78.9904 41.6205 79.2236 41.8653C79.2683 41.9085 79.2943 41.9675 79.296 42.0295C79.2976 42.0916 79.2749 42.1519 79.2326 42.1974C79.1903 42.2429 79.1318 42.2701 79.0696 42.2731C79.0075 42.2762 78.9466 42.2548 78.9 42.2136L78.8854 42.201C78.6694 42.0016 78.4291 41.83 78.1702 41.6904C77.9161 41.5515 77.6424 41.4519 77.3584 41.3949C76.7995 41.2777 76.2194 41.31 75.6769 41.4885L75.654 41.4965C75.5645 41.5281 75.4661 41.5229 75.3805 41.4821C75.2948 41.4413 75.2289 41.3682 75.1973 41.2789C75.1656 41.1896 75.1708 41.0914 75.2117 41.0059C75.2526 40.9205 75.3259 40.8547 75.4154 40.8231L75.4386 40.8171Z" fill="#0C0C0C"/>
<path d="M70.6582 41.2217C70.1445 40.9726 69.574 40.8634 69.0044 40.9051C68.7153 40.9238 68.4307 40.9862 68.1604 41.0901C67.8855 41.1942 67.6248 41.3323 67.3844 41.5011L67.369 41.5114C67.3174 41.5444 67.255 41.5563 67.1948 41.5446C67.1347 41.5329 67.0813 41.4986 67.0459 41.4487C67.0104 41.3988 66.9956 41.3371 67.0045 41.2766C67.0135 41.2161 67.0454 41.1614 67.0937 41.1237C67.3577 40.9121 67.6473 40.7345 67.9558 40.5951C68.2682 40.4528 68.6001 40.3579 68.9406 40.3136C69.2816 40.2658 69.6276 40.2649 69.9689 40.311C70.3192 40.3545 70.6615 40.4474 70.9855 40.5871C71.0728 40.6249 71.1414 40.6958 71.1762 40.7842C71.2111 40.8725 71.2094 40.971 71.1715 41.0581C71.1335 41.1452 71.0625 41.2136 70.9739 41.2484C70.8854 41.2832 70.7866 41.2815 70.6994 41.2436C70.6928 41.2408 70.6859 41.2376 70.6796 41.2342L70.6582 41.2217Z" fill="#0C0C0C"/>
<path d="M74.478 34.0466C75.9535 33.739 76.7818 31.7332 76.3281 29.5666C75.8743 27.3999 74.3104 25.8928 72.8349 26.2003C71.3595 26.5079 70.5312 28.5136 70.9849 30.6803C71.4386 32.847 73.0026 34.3541 74.478 34.0466Z" fill="#0C0C0C"/>
<path d="M86.8266 223.875L108.357 156.11H69.3303C61.4907 156.11 58.2227 149.477 58.2227 141.656C58.2227 133.835 65.9295 126.979 73.7685 126.979H126.44C131.221 126.979 136.582 129.896 139.207 133.884C141.831 137.872 141.121 144.051 139.22 148.429L104.743 231.973" fill="#262626"/>
<path opacity="0.8" d="M86.8266 223.875L108.357 156.11H69.3303C61.4907 156.11 58.2227 149.477 58.2227 141.656C58.2227 133.835 65.9295 126.979 73.7685 126.979H126.44C131.221 126.979 136.582 129.896 139.207 133.884C141.831 137.872 141.121 144.051 139.22 148.429L104.743 231.973" fill="#0A0A0A"/>
<path d="M141.491 238.454L105.491 156.11L58.2221 156.107C47.1463 155.24 42.0737 149.184 42.2351 141.365C42.3942 133.645 46.3122 126.019 54.0154 126.019H117.725C123.425 126.136 127.909 132.42 130.023 137.702L159.951 233.412" fill="#262626"/>
<path d="M39.0111 126.114C39.0111 126.114 36.9119 139.772 40.2394 147.365C44.3935 156.845 59.9663 156.107 59.9663 156.107L59.0888 126.02L39.0111 126.114Z" fill="#262626"/>
<path d="M131.378 125.845L97.988 118.942C96.5967 118.655 95.3005 118.021 94.2195 117.102C93.1384 116.182 92.3074 115.004 91.8033 113.679L78.6706 79.1519C78.2707 78.1157 78.0799 77.0108 78.1093 75.9008C78.1386 74.7909 78.3875 73.6976 78.8416 72.6839C79.2957 71.6701 79.9461 70.7559 80.7554 69.9937C81.5646 69.2314 82.5169 68.6362 83.5574 68.2423C84.5979 67.8483 85.7062 67.6633 86.8186 67.6979C87.931 67.7326 89.0256 67.9861 90.0394 68.4441C91.0533 68.902 91.9665 69.5553 92.7266 70.3664C93.4867 71.1775 94.0786 72.1304 94.4685 73.1704L105.957 103.372L134.807 109.336C134.807 109.336 131.957 125.965 131.378 125.845Z" fill="#367CFF"/>
<path d="M92.759 87.9211C92.3736 92.4408 89.6403 120.637 89.2683 126.204H39.0331C38.7445 121.184 37.4483 99.2287 36.354 89.4089C35.3091 80.0399 33.8444 75.7763 35.0478 72.8646C37.1702 67.7295 43.926 65.4361 48.501 64.8184C51.2944 64.441 55.496 64.1704 55.496 64.1704C55.496 64.1704 55.8519 71.3505 64.3347 71.7502C75.8821 72.2926 75.111 64.1704 75.1682 64.1704C77.0389 64.1704 87.2217 65.5278 89.7679 67.1834C93.3644 69.5222 94.427 72.709 94.4691 75.6373C94.5174 79.0085 93.1961 82.794 92.759 87.9211Z" fill="#367CFF"/>
<path d="M90.7847 110.96H90.7727C90.754 110.958 90.7358 110.953 90.719 110.944C90.7023 110.936 90.6875 110.924 90.6753 110.91C90.6632 110.895 90.654 110.879 90.6483 110.861C90.6425 110.843 90.6404 110.824 90.642 110.805L91.9461 95.1755C91.9472 95.1566 91.952 95.1382 91.9605 95.1213C91.9689 95.1044 91.9807 95.0894 91.9951 95.0772C92.0095 95.065 92.0263 95.0558 92.0444 95.0503C92.0625 95.0448 92.0815 95.043 92.1003 95.045C92.1191 95.0466 92.1373 95.0518 92.154 95.0604C92.1707 95.0689 92.1856 95.0807 92.1977 95.095C92.2099 95.1094 92.2191 95.1259 92.2248 95.1438C92.2305 95.1616 92.2326 95.1805 92.2311 95.1992L90.927 110.829C90.9239 110.865 90.9076 110.898 90.8813 110.922C90.8549 110.946 90.8205 110.96 90.7847 110.96Z" fill="#0C0C0C"/>
<path d="M98.861 123.105L109.883 89.2999C110.077 88.7059 110.454 88.1883 110.961 87.8212C111.467 87.4541 112.077 87.2564 112.704 87.2563H157.61C158.078 87.2563 158.54 87.3669 158.957 87.5789C159.374 87.791 159.735 88.0985 160.01 88.4764C160.285 88.8543 160.466 89.2918 160.54 89.7531C160.613 90.2144 160.575 90.6865 160.43 91.1306L149.408 124.935C149.214 125.529 148.837 126.047 148.331 126.414C147.824 126.781 147.214 126.979 146.588 126.979H101.681C101.213 126.979 100.752 126.869 100.335 126.656C99.9175 126.444 99.5566 126.137 99.2815 125.759C99.0064 125.381 98.8249 124.944 98.7518 124.482C98.6787 124.021 98.7161 123.549 98.861 123.105Z" fill="#292A2E"/>
<path d="M98.861 123.105L109.883 89.2999C110.077 88.7059 110.454 88.1883 110.961 87.8212C111.467 87.4541 112.077 87.2564 112.704 87.2563H157.61C158.078 87.2563 158.54 87.3669 158.957 87.5789C159.374 87.791 159.735 88.0985 160.01 88.4764C160.285 88.8543 160.466 89.2918 160.54 89.7531C160.613 90.2144 160.575 90.6865 160.43 91.1306L149.408 124.935C149.214 125.529 148.837 126.047 148.331 126.414C147.824 126.781 147.214 126.979 146.588 126.979H101.681C101.213 126.979 100.752 126.869 100.335 126.656C99.9175 126.444 99.5566 126.137 99.2815 125.759C99.0064 125.381 98.8249 124.944 98.7518 124.482C98.6787 124.021 98.7161 123.549 98.861 123.105Z" fill="#110D24"/>
<path d="M107.852 124.238H77.7919C77.0429 124.238 76.4357 124.844 76.4357 125.591V125.626C76.4357 126.373 77.0429 126.979 77.7919 126.979H107.852C108.601 126.979 109.209 126.373 109.209 125.626V125.591C109.209 124.844 108.601 124.238 107.852 124.238Z" fill="#292A2E"/>
<path d="M107.852 124.238H77.7919C77.0429 124.238 76.4357 124.844 76.4357 125.591V125.626C76.4357 126.373 77.0429 126.979 77.7919 126.979H107.852C108.601 126.979 109.209 126.373 109.209 125.626V125.591C109.209 124.844 108.601 124.238 107.852 124.238Z" fill="#110D24"/>
<path d="M129.646 113.466C132.247 113.466 134.355 111.362 134.355 108.767C134.355 106.172 132.247 104.068 129.646 104.068C127.045 104.068 124.936 106.172 124.936 108.767C124.936 111.362 127.045 113.466 129.646 113.466Z" fill="white"/>
<path d="M93.2142 81.6199H81.2731V96.2308H93.2142V81.6199Z" fill="white"/>
<path d="M81.2731 93.8038C80.306 93.8038 79.3605 93.5177 78.5564 92.9816C77.7522 92.4455 77.1254 91.6835 76.7553 90.7921C76.3852 89.9006 76.2884 88.9196 76.4771 87.9732C76.6657 87.0268 77.1315 86.1575 77.8153 85.4752C78.4992 84.7929 79.3705 84.3283 80.3191 84.14C81.2677 83.9518 82.2509 84.0484 83.1444 84.4176C84.038 84.7869 84.8017 85.4122 85.339 86.2145C85.8763 87.0168 86.1631 87.9601 86.1631 88.925C86.1617 90.2185 85.646 91.4586 84.7293 92.3733C83.8125 93.2879 82.5696 93.8024 81.2731 93.8038ZM81.2731 86.0448C80.7021 86.0448 80.1438 86.2137 79.669 86.5302C79.1942 86.8468 78.8242 87.2967 78.6057 87.823C78.3871 88.3494 78.33 88.9286 78.4414 89.4874C78.5528 90.0462 78.8278 90.5594 79.2316 90.9623C79.6355 91.3651 80.1499 91.6395 80.71 91.7506C81.2701 91.8617 81.8506 91.8046 82.3782 91.5865C82.9058 91.3685 83.3566 90.9992 83.6739 90.5255C83.9911 90.0517 84.1604 89.4948 84.1603 88.925C84.1596 88.1613 83.8551 87.4291 83.3138 86.8891C82.7725 86.3491 82.0386 86.0454 81.2731 86.0448Z" fill="white"/>
<path d="M81.9618 91.0898C81.853 90.8076 81.6481 90.5726 81.383 90.4259C81.1179 90.2793 80.8096 90.2305 80.512 90.2879C80.5177 90.2742 80.5207 90.2596 80.5209 90.2448L80.9215 90.0661C81.2021 89.9471 81.4329 89.7349 81.5747 89.4656C81.7166 89.1963 81.7608 88.8864 81.7 88.5883C81.6579 88.4022 81.575 88.2277 81.4571 88.0774C81.3393 87.9271 81.1895 87.8048 81.0186 87.7192C80.8476 87.6337 80.6598 87.587 80.4686 87.5827C80.2774 87.5783 80.0876 87.6163 79.9129 87.6939L78.9682 88.1156C78.9682 88.1119 78.9682 88.1081 78.9662 88.1044C78.9625 88.0969 78.9578 88.0898 78.9524 88.0833C79.1852 87.9083 79.3516 87.6597 79.4246 87.3782C79.4976 87.0966 79.4729 86.7987 79.3544 86.533C79.092 85.8248 78.1622 85.7682 77.5473 86.042L75.077 87.0362L75.8226 86.2818C76.0562 86.0358 76.1875 85.7105 76.1899 85.3716C76.1924 85.0328 76.0658 84.7056 75.8357 84.4563C75.7124 84.3318 75.5649 84.2336 75.4023 84.1679C75.2397 84.1021 75.0654 84.0701 74.8899 84.0738C74.7145 84.0775 74.5417 84.1168 74.382 84.1893C74.2223 84.2618 74.0791 84.3661 73.9611 84.4957L65.1773 94.0665L68.1816 96.9531C69.1144 97.8497 70.2944 98.4479 71.5702 98.671C72.8461 98.8941 74.1596 98.732 75.3425 98.2054L80.6963 95.8107C80.9769 95.6917 81.2078 95.4795 81.3496 95.2102C81.4915 94.9409 81.5357 94.631 81.4748 94.3328C81.414 94.0653 81.2692 93.824 81.0613 93.6443C80.8535 93.4646 80.5936 93.3558 80.3195 93.3337C80.3225 93.3189 80.3226 93.3037 80.3196 93.2888C80.3167 93.274 80.3109 93.2599 80.3024 93.2473C80.294 93.2348 80.2831 93.224 80.2705 93.2157C80.2578 93.2073 80.2437 93.2016 80.2288 93.1987L81.2173 92.7586C81.5303 92.6263 81.7813 92.3805 81.9195 92.0707C82.0577 91.7609 82.0728 91.4103 81.9618 91.0898Z" fill="#E98862"/>
<path opacity="0.2" d="M77.1819 88.9254C77.1536 88.9255 77.1261 88.9157 77.1042 88.8978C77.0824 88.8798 77.0675 88.8548 77.0622 88.827C77.0569 88.7992 77.0615 88.7705 77.0752 88.7458C77.0889 88.721 77.1109 88.7019 77.1373 88.6916L78.8082 88.035C78.823 88.0292 78.8388 88.0264 78.8548 88.0266C78.8707 88.0269 78.8864 88.0303 78.901 88.0366C78.9157 88.043 78.9289 88.0521 78.9399 88.0635C78.951 88.075 78.9597 88.0885 78.9656 88.1033C78.9714 88.1181 78.9743 88.1338 78.974 88.1497C78.9737 88.1656 78.9703 88.1813 78.964 88.1959C78.9576 88.2105 78.9485 88.2237 78.937 88.2347C78.9255 88.2457 78.912 88.2544 78.8972 88.2603L77.2263 88.9168C77.2121 88.9224 77.1971 88.9253 77.1819 88.9254Z" fill="#0C0C0C"/>
<path opacity="0.2" d="M78.1144 91.2827C78.0863 91.2826 78.0591 91.2728 78.0374 91.2549C78.0157 91.237 78.001 91.2122 77.9956 91.1846C77.9903 91.1571 77.9947 91.1286 78.0081 91.1039C78.0215 91.0793 78.0431 91.06 78.0692 91.0495L80.3547 90.1323C80.3842 90.122 80.4165 90.1234 80.4449 90.1363C80.4734 90.1492 80.4957 90.1725 80.5074 90.2014C80.519 90.2303 80.5191 90.2626 80.5075 90.2915C80.4959 90.3204 80.4735 90.3438 80.4451 90.3567L78.1599 91.2741C78.1454 91.2798 78.13 91.2827 78.1144 91.2827Z" fill="#0C0C0C"/>
<path opacity="0.2" d="M79.1112 93.8421C79.0828 93.8421 79.0553 93.8322 79.0335 93.814C79.0116 93.7958 78.9969 93.7706 78.9918 93.7427C78.9867 93.7148 78.9916 93.686 79.0057 93.6613C79.0197 93.6367 79.042 93.6177 79.0686 93.6078L80.1581 93.1998C80.1882 93.1885 80.2216 93.1895 80.251 93.2028C80.2804 93.216 80.3032 93.2403 80.3146 93.2703C80.326 93.3004 80.325 93.3337 80.3117 93.363C80.2984 93.3923 80.2741 93.4151 80.244 93.4265L79.1544 93.8344C79.1406 93.8395 79.126 93.8421 79.1112 93.8421Z" fill="#0C0C0C"/>
<path d="M84.5025 72.3263C84.4498 72.3263 84.3981 72.3118 84.3531 72.2844C84.3081 72.257 84.2716 72.2178 84.2475 72.171C83.5961 70.9038 82.7855 69.3264 82.877 67.6727C82.9497 66.3576 83.5677 65.1892 84.1646 64.0608C84.5503 63.3787 84.879 62.6661 85.1474 61.9302C85.4749 60.9146 85.5575 59.8363 85.3884 58.783C85.2194 57.7296 84.8035 56.7309 84.1746 55.8682C84.151 55.8381 84.1338 55.8037 84.1238 55.7668C84.1138 55.73 84.1113 55.6916 84.1165 55.6538C84.1216 55.616 84.1343 55.5796 84.1538 55.5468C84.1733 55.514 84.1992 55.4854 84.23 55.4627C84.2607 55.4401 84.2957 55.4238 84.3329 55.4148C84.37 55.4059 84.4086 55.4045 84.4463 55.4106C84.4841 55.4168 84.5202 55.4305 84.5525 55.4508C84.5849 55.4712 84.6128 55.4977 84.6347 55.529C85.3178 56.4653 85.7698 57.5492 85.9537 58.6926C86.1377 59.836 86.0484 61.0066 85.6933 62.1091C85.4154 62.8755 85.0741 63.6175 84.673 64.3274C84.0779 65.4519 83.516 66.5138 83.4501 67.7044C83.3672 69.2033 84.1065 70.6418 84.7586 71.9106C84.7809 71.9541 84.7917 72.0026 84.7898 72.0515C84.788 72.1003 84.7736 72.1478 84.7481 72.1896C84.7226 72.2313 84.6867 72.2657 84.644 72.2897C84.6013 72.3136 84.5532 72.3262 84.5042 72.3263H84.5025Z" fill="white"/>
<path d="M89.0967 76.7816C89.0332 76.7816 88.9716 76.7606 88.9215 76.7218C88.8713 76.6831 88.8355 76.6288 88.8197 76.5675C88.8038 76.5063 88.8088 76.4415 88.8339 76.3833C88.859 76.3252 88.9027 76.277 88.9582 76.2464C90.0185 75.6629 90.1373 74.039 89.6391 72.8061C89.392 72.2394 89.1029 71.6919 88.7742 71.1681C88.3348 70.4894 87.9775 69.7612 87.7099 68.9986C87.4366 68.0689 87.4194 67.0829 87.6602 66.1442C87.901 65.2056 88.3907 64.349 89.0781 63.6645C89.1327 63.6126 89.2056 63.5843 89.281 63.5857C89.3564 63.5872 89.4282 63.6183 89.4808 63.6723C89.5333 63.7263 89.5624 63.7988 89.5616 63.8741C89.5608 63.9494 89.5303 64.0213 89.4766 64.0742C88.8638 64.6846 88.4271 65.4484 88.2124 66.2854C87.9977 67.1224 88.013 68.0017 88.2566 68.8308C88.511 69.5502 88.85 70.237 89.2663 70.8769C89.6105 71.4251 89.9125 71.9985 90.1696 72.5923C90.753 74.0358 90.6231 75.9821 89.2343 76.746C89.1922 76.7692 89.1448 76.7815 89.0967 76.7816Z" fill="white"/>
<path d="M75.2486 101.665L33.118 119.06C31.599 119.681 29.9318 119.846 28.32 119.537C26.7083 119.227 25.2219 118.456 24.0423 117.317C22.8628 116.178 22.0412 114.722 21.678 113.125C21.3148 111.528 21.4258 109.86 21.9972 108.325L34.5629 74.0827C36.1874 69.7186 40.7639 67.2092 45.1383 68.8303C47.2388 69.6087 48.9433 71.1877 49.877 73.2199C50.8106 75.2521 50.8969 77.5712 50.1167 79.6669L44.3852 95.8738L69.0771 86.3763" fill="#367CFF"/>
<path d="M75.1459 101.82C75.1235 101.82 75.1016 101.813 75.083 101.8C75.0644 101.788 75.0498 101.77 75.0412 101.75L68.9112 86.5632L44.302 96.0387C44.2816 96.0466 44.2594 96.0484 44.238 96.0439C44.2167 96.0394 44.1971 96.0288 44.1816 96.0133C44.1662 95.9979 44.1557 95.9783 44.1512 95.957C44.1468 95.9356 44.1487 95.9134 44.1566 95.8932L47.962 86.1487C47.9728 86.121 47.9943 86.0987 48.0216 86.0867C48.049 86.0748 48.08 86.0741 48.1078 86.085C48.1356 86.0958 48.1579 86.1172 48.1699 86.1445C48.1819 86.1717 48.1826 86.2026 48.1717 86.2304L44.4591 95.737L68.9338 86.3132C68.9614 86.3026 68.992 86.3032 69.0192 86.3149C69.0463 86.3267 69.0677 86.3486 69.0788 86.376L75.2504 101.665C75.2611 101.693 75.2606 101.724 75.2489 101.751C75.2373 101.779 75.2154 101.8 75.188 101.812C75.1746 101.817 75.1603 101.82 75.1459 101.82Z" fill="#0C0C0C"/>
<path d="M36.5731 99.054C36.5468 99.0542 36.5212 99.0452 36.5008 99.0285C36.4804 99.0118 36.4666 98.9885 36.4617 98.9627C36.4567 98.9369 36.4611 98.9101 36.4739 98.8872C36.4868 98.8642 36.5073 98.8465 36.5319 98.837L44.2396 95.8112C44.2534 95.8055 44.2682 95.8026 44.2832 95.8027C44.2981 95.8028 44.3129 95.8059 44.3267 95.8117C44.3404 95.8176 44.3529 95.8261 44.3633 95.8368C44.3737 95.8474 44.3819 95.8601 44.3874 95.874C44.3929 95.8878 44.3955 95.9026 44.3952 95.9175C44.3949 95.9325 44.3916 95.9472 44.3856 95.9608C44.3795 95.9744 44.3708 95.9867 44.3599 95.9969C44.3491 96.0072 44.3363 96.0152 44.3223 96.0204L36.6143 99.0463C36.6012 99.0514 36.5872 99.054 36.5731 99.054Z" fill="#0C0C0C"/>
<path d="M38.3682 117.029C38.3421 117.029 38.3168 117.02 38.2965 117.004C38.2763 116.987 38.2625 116.964 38.2574 116.939C38.2523 116.913 38.2563 116.887 38.2687 116.864C38.2811 116.841 38.3011 116.823 38.3253 116.813L75.1041 101.604C75.1178 101.598 75.1324 101.595 75.1472 101.595C75.162 101.595 75.1766 101.598 75.1903 101.604C75.2039 101.609 75.2163 101.618 75.2267 101.628C75.2372 101.639 75.2454 101.651 75.2511 101.665C75.2567 101.678 75.2596 101.693 75.2596 101.708C75.2596 101.722 75.2566 101.737 75.2509 101.751C75.2453 101.764 75.237 101.777 75.2265 101.787C75.2161 101.797 75.2036 101.806 75.19 101.811L38.4111 117.02C38.3976 117.026 38.383 117.029 38.3682 117.029Z" fill="#0C0C0C"/>
<path d="M225.091 128.565C225.015 128.565 224.942 128.535 224.889 128.481C224.486 128.079 223.829 120.7 222.059 98.7297C221.334 89.7398 220.65 81.2488 220.151 76.0886C220.115 75.72 219.972 75.677 219.925 75.663C219.242 75.4571 217.164 77.0922 216.003 78.5238C215.956 78.5827 215.886 78.6203 215.811 78.6283C215.736 78.6363 215.66 78.6141 215.601 78.5665C215.542 78.5189 215.504 78.4499 215.496 78.3746C215.488 78.2993 215.51 78.2239 215.558 78.165C216.326 77.2184 218.826 74.7366 220.09 75.116C220.345 75.1925 220.662 75.4135 220.721 76.0335C221.22 81.1983 221.904 89.6918 222.629 98.6837C223.704 112.035 224.923 127.16 225.323 128.113C225.354 128.155 225.372 128.205 225.376 128.258C225.38 128.31 225.37 128.363 225.346 128.409C225.322 128.456 225.285 128.495 225.24 128.523C225.195 128.55 225.144 128.565 225.091 128.565Z" fill="#494949"/>
<path d="M219.416 85.5574C224.164 81.7604 225.737 75.8505 222.931 72.3572C220.124 68.8639 214 69.11 209.252 72.907C204.505 76.7039 202.931 82.6139 205.738 86.1072C208.544 89.6005 214.668 89.3543 219.416 85.5574Z" fill="#0CBC8B"/>
<path opacity="0.2" d="M219.416 85.5574C224.164 81.7604 225.737 75.8505 222.931 72.3572C220.124 68.8639 214 69.11 209.252 72.907C204.505 76.7039 202.931 82.6139 205.738 86.1072C208.544 89.6005 214.668 89.3543 219.416 85.5574Z" fill="white"/>
<path d="M207.069 86.996C207.041 86.996 207.015 86.9883 206.992 86.9737C206.969 86.9592 206.951 86.9384 206.939 86.9138C206.927 86.8893 206.923 86.8619 206.927 86.8351C206.93 86.8082 206.941 86.7828 206.959 86.762L220.489 70.4826C220.501 70.4678 220.516 70.4555 220.533 70.4464C220.549 70.4374 220.568 70.4317 220.587 70.4298C220.606 70.4279 220.625 70.4298 220.643 70.4353C220.661 70.4408 220.678 70.4499 220.692 70.462C220.707 70.4742 220.719 70.489 220.728 70.5059C220.737 70.5227 220.742 70.5411 220.744 70.56C220.745 70.5788 220.743 70.5979 220.737 70.6159C220.731 70.6339 220.722 70.6506 220.709 70.665L207.179 86.9444C207.165 86.9605 207.148 86.9735 207.129 86.9825C207.11 86.9914 207.09 86.996 207.069 86.996Z" fill="white"/>
<path d="M228.042 125.075C227.997 125.075 227.952 125.064 227.911 125.043C227.87 125.022 227.835 124.992 227.809 124.955C227.782 124.918 227.765 124.875 227.759 124.83C227.752 124.784 227.757 124.738 227.772 124.695L232.854 110.112C233.004 109.684 233.259 109.299 233.596 108.995C233.933 108.69 234.341 108.475 234.784 108.368C235.226 108.262 235.687 108.268 236.127 108.385C236.566 108.503 236.969 108.729 237.298 109.042L239.984 111.603C240.039 111.656 240.071 111.728 240.073 111.803C240.075 111.879 240.046 111.952 239.994 112.007C239.941 112.062 239.869 112.093 239.793 112.095C239.717 112.097 239.644 112.068 239.589 112.016L236.902 109.455C236.642 109.208 236.325 109.03 235.978 108.937C235.631 108.844 235.267 108.839 234.918 108.923C234.569 109.007 234.247 109.177 233.981 109.418C233.714 109.658 233.513 109.962 233.395 110.3L228.312 124.883C228.293 124.939 228.256 124.987 228.208 125.022C228.16 125.056 228.102 125.075 228.042 125.075Z" fill="#494949"/>
<path d="M247.492 119.678C251.011 116.899 250.801 110.788 247.025 106.027C243.249 101.267 237.335 99.6611 233.816 102.44C230.298 105.218 230.507 111.33 234.283 116.09C238.06 120.85 243.974 122.456 247.492 119.678Z" fill="#0CBC8B"/>
<path d="M222.782 127.635C222.718 127.635 222.655 127.613 222.605 127.573C222.554 127.534 222.519 127.478 222.504 127.416L213.975 91.8349C213.916 91.5923 213.792 91.3706 213.616 91.1939C213.439 91.0172 213.217 90.8925 212.975 90.8335C212.732 90.7745 212.477 90.7835 212.239 90.8594C212.001 90.9353 211.788 91.0753 211.625 91.2639L208.996 94.2952C208.971 94.3236 208.941 94.3468 208.908 94.3636C208.874 94.3805 208.837 94.3905 208.8 94.3932C208.762 94.3959 208.725 94.3912 208.689 94.3794C208.653 94.3676 208.621 94.3489 208.592 94.3243C208.564 94.2998 208.54 94.2699 208.523 94.2364C208.507 94.2029 208.497 94.1664 208.494 94.129C208.491 94.0916 208.496 94.054 208.508 94.0184C208.52 93.9828 208.538 93.9499 208.563 93.9216L211.192 90.8903C211.425 90.6226 211.727 90.4241 212.065 90.3165C212.403 90.2089 212.765 90.1964 213.11 90.2804C213.455 90.3645 213.77 90.5417 214.02 90.7927C214.271 91.0437 214.447 91.3588 214.53 91.7033L223.059 127.284C223.077 127.358 223.064 127.435 223.025 127.5C222.985 127.564 222.921 127.61 222.848 127.628C222.826 127.633 222.804 127.635 222.782 127.635Z" fill="#494949"/>
<path d="M219.636 102.199C220.673 96.2173 217.929 90.7495 213.507 89.9866C209.085 89.2237 204.66 93.4547 203.624 99.4367C202.587 105.419 205.331 110.887 209.753 111.649C214.174 112.412 218.599 108.181 219.636 102.199Z" fill="#0CBC8B"/>
<path d="M225.092 128.565C225.08 128.565 225.068 128.564 225.056 128.562C224.981 128.553 224.912 128.515 224.865 128.455C224.819 128.395 224.798 128.32 224.807 128.244L230.254 84.1246C230.313 83.6437 230.51 83.1902 230.822 82.8186C231.133 82.4469 231.545 82.173 232.009 82.0297C232.473 81.8864 232.969 81.8799 233.436 82.011C233.903 82.142 234.323 82.405 234.644 82.7684L240.869 89.8029C240.92 89.8597 240.945 89.934 240.941 90.0096C240.936 90.0852 240.901 90.1559 240.844 90.206C240.787 90.2561 240.713 90.2816 240.637 90.2769C240.561 90.2722 240.491 90.2376 240.44 90.1808L234.215 83.146C233.967 82.8652 233.642 82.6619 233.281 82.5607C232.919 82.4594 232.536 82.4646 232.178 82.5755C231.819 82.6864 231.501 82.8983 231.26 83.1858C231.019 83.4732 230.867 83.8239 230.822 84.1956L225.374 128.314C225.365 128.383 225.332 128.446 225.28 128.493C225.228 128.539 225.161 128.564 225.092 128.565Z" fill="#494949"/>
<path d="M247.253 93.7118C249.425 89.7942 246.87 84.2362 241.545 81.2977C236.221 78.3593 230.143 79.1531 227.971 83.0708C225.799 86.9884 228.355 92.5464 233.679 95.4848C239.004 98.4233 245.081 97.6295 247.253 93.7118Z" fill="#0CBC8B"/>
<path opacity="0.2" d="M247.492 119.678C251.011 116.899 250.801 110.788 247.025 106.027C243.249 101.267 237.335 99.6611 233.816 102.44C230.298 105.218 230.507 111.33 234.283 116.09C238.06 120.85 243.974 122.456 247.492 119.678Z" fill="white"/>
<path opacity="0.5" d="M219.636 102.199C220.673 96.2173 217.929 90.7495 213.507 89.9866C209.085 89.2237 204.66 93.4547 203.624 99.4367C202.587 105.419 205.331 110.887 209.753 111.649C214.174 112.412 218.599 108.181 219.636 102.199Z" fill="white"/>
<path opacity="0.5" d="M247.253 93.7118C249.425 89.7942 246.87 84.2362 241.545 81.2977C236.221 78.3593 230.143 79.1531 227.971 83.0708C225.799 86.9884 228.355 92.5464 233.679 95.4848C239.004 98.4233 245.081 97.6295 247.253 93.7118Z" fill="white"/>
<path d="M232.057 166H218.125L215.816 121.524H234.366L232.057 166Z" fill="#292A2E"/>
<path opacity="0.3" d="M232.057 166H218.125L215.816 121.524H234.366L232.057 166Z" fill="white"/>
<path d="M247.492 119.819C247.471 119.819 247.449 119.814 247.43 119.805C247.41 119.795 247.393 119.782 247.38 119.765L233.703 102.527C233.68 102.497 233.669 102.459 233.673 102.422C233.678 102.384 233.697 102.35 233.727 102.326C233.756 102.303 233.794 102.292 233.832 102.296C233.87 102.301 233.904 102.32 233.928 102.349L247.604 119.587C247.621 119.608 247.631 119.633 247.634 119.66C247.637 119.687 247.633 119.714 247.621 119.738C247.609 119.762 247.591 119.782 247.568 119.797C247.545 119.811 247.519 119.819 247.492 119.819Z" fill="white"/>
<path d="M246.344 95.0931C246.313 95.0928 246.284 95.0828 246.26 95.0645L228.759 82.3162C228.744 82.3052 228.731 82.2912 228.721 82.2752C228.711 82.2592 228.705 82.2414 228.702 82.2229C228.699 82.2044 228.7 82.1855 228.704 82.1672C228.708 82.149 228.716 82.1318 228.728 82.1167C228.739 82.1015 228.753 82.0887 228.769 82.079C228.785 82.0692 228.802 82.0627 228.821 82.0598C228.84 82.0569 228.859 82.0577 228.877 82.0621C228.895 82.0666 228.912 82.0745 228.928 82.0856L246.428 94.835C246.452 94.8529 246.47 94.8778 246.479 94.9063C246.488 94.9347 246.488 94.9653 246.478 94.9936C246.469 95.022 246.451 95.0467 246.427 95.0644C246.403 95.082 246.374 95.0916 246.344 95.0919V95.0931Z" fill="white"/>
<path d="M209.041 111.464C209.029 111.464 209.016 111.462 209.004 111.459C208.968 111.449 208.936 111.425 208.917 111.392C208.898 111.359 208.893 111.321 208.903 111.284L214.474 90.4589C214.479 90.4405 214.487 90.4233 214.499 90.4081C214.51 90.3929 214.524 90.3801 214.54 90.3705C214.557 90.3609 214.575 90.3546 214.594 90.352C214.613 90.3495 214.632 90.3507 214.65 90.3555C214.668 90.3604 214.686 90.3689 214.701 90.3805C214.716 90.3921 214.728 90.4065 214.738 90.423C214.747 90.4395 214.753 90.4576 214.755 90.4765C214.757 90.4953 214.756 90.5143 214.751 90.5326L209.18 111.358C209.172 111.388 209.154 111.415 209.129 111.434C209.104 111.453 209.073 111.464 209.041 111.464Z" fill="white"/>
</g>
</g>
<defs>
<clipPath id="clip0_10_1841">
<rect width="250" height="127" fill="white"/>
</clipPath>
<clipPath id="clip1_10_1841">
<rect width="250" height="246" fill="white"/>
</clipPath>
</defs>
</svg>
