<svg width="74" height="34" viewBox="0 0 74 34" fill="none" xmlns="http://www.w3.org/2000/svg">
<path d="M14.1419 24.069L7.01655 16.9856L14.1419 9.90222C14.4104 9.63583 14.6234 9.31942 14.7688 8.97108C14.9141 8.62275 14.9889 8.24934 14.9889 7.87223C14.9889 7.49511 14.9141 7.1217 14.7688 6.77337C14.6234 6.42503 14.4104 6.10862 14.1419 5.84223C13.0123 4.71926 11.1585 4.71926 10.0289 5.84223L0.847057 14.97C0.578543 15.2364 0.365514 15.5528 0.220165 15.9011C0.0748152 16.2495 0 16.6229 0 17C0 17.3771 0.0748152 17.7505 0.220165 18.0989C0.365514 18.4472 0.578543 18.7636 0.847057 19.03L10.0289 28.1578C11.1585 29.2807 13.0123 29.2807 14.1419 28.1578C15.3005 27.0348 15.2715 25.192 14.1419 24.069Z" fill="#1A1433"/>
<path d="M46.3468 20.3956C46.8267 20.3958 47.302 20.4949 47.7453 20.6873C48.1886 20.8797 48.5914 21.1616 48.9307 21.5168C49.2699 21.8721 49.5389 22.2938 49.7224 22.7578C49.9059 23.2219 50.0002 23.7192 50 24.2213V25.7823C50 26.7566 49.7091 27.7065 49.1679 28.4994C46.6555 32.1789 42.5538 34 36.9959 34C31.4348 34 27.3347 32.1772 24.8288 28.4977C24.2895 27.7053 23.9998 26.7567 24 25.784V24.2196C24 23.2054 24.3851 22.2328 25.0705 21.5156C25.7559 20.7985 26.6855 20.3956 27.6549 20.3956H46.3468ZM36.9943 0C38.0614 -1.66365e-08 39.118 0.219903 40.1038 0.647153C41.0896 1.0744 41.9854 1.70063 42.7399 2.49009C43.4944 3.27955 44.093 4.21677 44.5013 5.24824C44.9096 6.27971 45.1198 7.38524 45.1198 8.5017C45.1198 9.61816 44.9096 10.7237 44.5013 11.7552C44.093 12.7866 43.4944 13.7239 42.7399 14.5133C41.9854 15.3028 41.0896 15.929 40.1038 16.3562C39.118 16.7835 38.0614 17.0034 36.9943 17.0034C34.8393 17.0034 32.7725 16.1077 31.2487 14.5133C29.7249 12.9189 28.8688 10.7565 28.8688 8.5017C28.8688 6.24691 29.7249 4.08447 31.2487 2.49009C32.7725 0.895712 34.8393 0 36.9943 0Z" fill="#1A1433"/>
<path d="M73.1523 19.03L63.9637 28.1578C62.8333 29.2807 60.9781 29.2807 59.8477 28.1578C59.579 27.8914 59.3658 27.575 59.2203 27.2266C59.0749 26.8783 59 26.5049 59 26.1278C59 25.7507 59.0749 25.3773 59.2203 25.0289C59.3658 24.6806 59.579 24.3642 59.8477 24.0978L67.0073 16.9856L59.8477 9.90222C59.579 9.63583 59.3658 9.31942 59.2203 8.97108C59.0749 8.62275 59 8.24934 59 7.87223C59 7.49511 59.0749 7.1217 59.2203 6.77337C59.3658 6.42503 59.579 6.10862 59.8477 5.84223C60.9781 4.71926 62.8333 4.71926 63.9637 5.84223L73.1523 14.97C73.421 15.2364 73.6342 15.5528 73.7797 15.9011C73.9251 16.2495 74 16.6229 74 17C74 17.3771 73.9251 17.7505 73.7797 18.0989C73.6342 18.4472 73.421 18.7636 73.1523 19.03Z" fill="#1A1433"/>
</svg>
