<svg width="57" height="56" viewBox="0 0 57 56" fill="none" xmlns="http://www.w3.org/2000/svg">
<rect x="0.5" width="56" height="56" rx="28" fill="#383353"/>
<g clip-path="url(#clip0_86_5370)">
<path fill-rule="evenodd" clip-rule="evenodd" d="M27.086 18.1C27.44 17.7465 27.9136 17.5385 28.4134 17.517C28.9132 17.4955 29.403 17.6621 29.786 17.984L29.914 18.101L31.814 20H34.5C35.0044 20.0001 35.4901 20.1908 35.8599 20.5338C36.2297 20.8769 36.4561 21.347 36.494 21.85L36.5 22V24.686L38.4 26.586C38.7538 26.94 38.962 27.4139 38.9834 27.9139C39.0049 28.414 38.8381 28.9039 38.516 29.287L38.399 29.414L36.499 31.314V34C36.4991 34.5046 36.3086 34.9906 35.9655 35.3605C35.6224 35.7305 35.1521 35.9572 34.649 35.995L34.5 36H31.815L29.915 37.9C29.5609 38.2538 29.0871 38.462 28.587 38.4835C28.087 38.505 27.597 38.3382 27.214 38.016L27.087 37.9L25.187 36H22.5C21.9954 36.0002 21.5094 35.8096 21.1394 35.4665C20.7694 35.1234 20.5428 34.6532 20.505 34.15L20.5 34V31.314L18.6 29.414C18.2462 29.06 18.038 28.5861 18.0165 28.0861C17.995 27.586 18.1618 27.0961 18.484 26.713L18.6 26.586L20.5 24.686V22C20.5001 21.4956 20.6907 21.0099 21.0338 20.6401C21.3769 20.2703 21.847 20.0438 22.35 20.006L22.5 20H25.186L27.086 18.1ZM31.579 24.983L27.335 29.227L25.567 27.459C25.3793 27.2715 25.1249 27.1662 24.8596 27.1663C24.5943 27.1664 24.34 27.2719 24.1525 27.4595C23.965 27.6471 23.8597 27.9016 23.8598 28.1669C23.8599 28.4321 23.9653 28.6865 24.153 28.874L26.557 31.278C26.6591 31.3802 26.7804 31.4613 26.9139 31.5166C27.0474 31.5719 27.1905 31.6004 27.335 31.6004C27.4795 31.6004 27.6226 31.5719 27.756 31.5166C27.8895 31.4613 28.0108 31.3802 28.113 31.278L32.993 26.397C33.1751 26.2084 33.2759 25.9558 33.2736 25.6936C33.2714 25.4314 33.1662 25.1806 32.9808 24.9952C32.7954 24.8098 32.5446 24.7046 32.2824 24.7023C32.0202 24.7 31.7676 24.8008 31.579 24.983Z" fill="#908F96"/>
</g>
<defs>
<clipPath id="clip0_86_5370">
<rect width="24" height="24" fill="white" transform="translate(16.5 16)"/>
</clipPath>
</defs>
</svg>
