<svg width="80" height="80" viewBox="0 0 80 80" fill="none" xmlns="http://www.w3.org/2000/svg">
<g clip-path="url(#clip0_107_6126)">
<path opacity="0.1" d="M40.0001 79.9995C62.0915 79.9995 80.0001 62.091 80.0001 39.9998C80.0001 17.9085 62.0915 0 40.0001 0C17.9086 0 0 17.9085 0 39.9998C0 62.091 17.9086 79.9995 40.0001 79.9995Z" fill="#367CFF"/>
<path d="M170.5 58.6469C140.532 97.7621 93.2263 123 40 123C-13.2262 123 -60.5318 97.7621 -90.5 58.6469C-56.2899 45.834 -10.4233 38 40 38C90.4233 38 136.287 45.834 170.5 58.6469Z" fill="#367CFF" fill-opacity="0.4"/>
<path d="M22 36.6923C22 34.7593 23.567 33.1923 25.5 33.1923H55.5C57.433 33.1923 59 34.7593 59 36.6923V61.5243C46.82 64.2744 34.18 64.2744 22 61.5243V36.6923Z" fill="#367CFF" stroke="#1A1433"/>
<path d="M25.5 32.6923H41.2308H55.5C57.7091 32.6923 59.5 34.4831 59.5 36.6923V39.2692C59.5 40.48 58.5185 41.4615 57.3077 41.4615C56.0969 41.4615 55.1154 42.443 55.1154 43.6538V46.2115C55.1154 47.2205 54.2974 48.0384 53.2885 48.0384C52.2795 48.0384 51.4615 47.2205 51.4615 46.2115V42.5384C51.4615 40.3293 49.6707 38.5384 47.4615 38.5384H39.3846C37.1755 38.5384 35.3846 40.3293 35.3846 42.5384V46.9423C35.3846 47.9512 34.5667 48.7692 33.5577 48.7692C32.5487 48.7692 31.7308 47.9512 31.7308 46.9423V45.8461C31.7308 44.6353 30.7492 43.6538 29.5385 43.6538C28.3277 43.6538 27.3462 44.6353 27.3462 45.8461V50.2307C27.3462 51.8451 26.0374 53.1538 24.4231 53.1538C22.8087 53.1538 21.5 51.8451 21.5 50.2307V36.6923C21.5 34.4831 23.2909 32.6923 25.5 32.6923Z" fill="white" stroke="#1A1433"/>
<path d="M36.1153 21.4615L39.7691 12.6923L44.1027 20.9366C44.2861 21.2855 44.4303 21.6535 44.5328 22.0341L44.7421 22.8115C45.5509 25.8159 43.2876 28.7692 40.1762 28.7692C36.831 28.7692 34.5436 25.3906 35.786 22.2847L36.1153 21.4615Z" fill="#FF702A"/>
<path d="M37.7393 22.1958L39.7692 16.6154L42.1837 21.877C42.281 22.089 42.3569 22.3101 42.4102 22.5372L42.6327 23.4838C43.0364 25.2012 41.7333 26.8461 39.9691 26.8461C38.0851 26.8461 36.7647 24.9865 37.3858 23.2078L37.7393 22.1958Z" fill="#FFD314"/>
<circle cx="53.5" cy="52" r="2" fill="white" stroke="#1A1433"/>
</g>
<defs>
<clipPath id="clip0_107_6126">
<rect width="80" height="80" rx="40" fill="white"/>
</clipPath>
</defs>
</svg>
